<?xml version="1.0" encoding="UTF-8" standalone="no"?>
<svg width="938px" height="149px" viewBox="0 0 938 149" version="1.1" xmlns="http://www.w3.org/2000/svg" xmlns:xlink="http://www.w3.org/1999/xlink" xmlns:sketch="http://www.bohemiancoding.com/sketch/ns">
    <!-- Generator: Sketch 3.2.2 (9983) - http://www.bohemiancoding.com/sketch -->
    <title>CHICAG + GEM</title>
    <desc>Created with Sketch.</desc>
    <defs></defs>
    <g id="Symbols" stroke="none" stroke-width="1" fill="none" fill-rule="evenodd" sketch:type="MSPage">
        <g id="Lettering" sketch:type="MSArtboardGroup" transform="translate(-251.000000, -1285.000000)" fill="#D0011B">
            <g id="CHICAG-+-GEM" sketch:type="MSLayerGroup" transform="translate(251.500000, 1285.556451)">
                <path d="M71.8274858,147.686218 C95.3607077,147.686218 110.913098,139.526759 125.033031,126.67561 C126.465488,125.451691 127.693308,123.411826 127.693308,120.963988 C127.693308,116.884258 124.009847,113.212501 119.917113,113.212501 C117.870746,113.212501 116.029016,114.232434 114.801195,115.456353 C102.522993,126.67561 90.0401532,132.795204 72.2367593,132.795204 C40.7227056,132.795204 16.7802104,106.88892 16.7802104,73.8431091 L16.7802104,73.4351361 C16.7802104,40.5933113 40.5180689,14.8910137 72.2367593,14.8910137 C89.8355165,14.8910137 102.318356,21.4185814 113.368738,31.2099328 C114.596559,32.0258788 116.438289,33.0458112 118.689293,33.0458112 C122.986664,33.0458112 126.874761,29.3740544 126.874761,25.0903382 C126.874761,22.2345273 125.237668,19.9906759 123.600574,18.5627705 C110.299188,7.5475001 95.5653444,4.26325641e-14 72.441396,4.26325641e-14 C30.2862333,4.26325641e-14 5.68434189e-14,33.4537842 5.68434189e-14,73.8431091 L5.68434189e-14,74.251082 C5.68434189e-14,115.252366 30.4908701,147.686218 71.8274858,147.686218 L71.8274858,147.686218 Z M149.58944,138.098853 C149.58944,142.586556 153.272901,146.258313 157.570272,146.258313 C162.07228,146.258313 165.755741,142.586556 165.755741,138.098853 L165.755741,80.9826362 L248.428972,80.9826362 L248.428972,138.098853 C248.428972,142.586556 252.112433,146.258313 256.614441,146.258313 C260.911812,146.258313 264.595273,142.586556 264.595273,138.098853 L264.595273,9.58736499 C264.595273,5.09966223 260.911812,1.42790542 256.614441,1.42790542 C252.112433,1.42790542 248.428972,5.09966223 248.428972,9.58736499 L248.428972,65.887636 L165.755741,65.887636 L165.755741,9.58736499 C165.755741,5.09966223 162.07228,1.42790542 157.570272,1.42790542 C153.272901,1.42790542 149.58944,5.09966223 149.58944,9.58736499 L149.58944,138.098853 Z M298.769608,138.098853 C298.769608,142.586556 302.453068,146.258313 306.750439,146.258313 C311.252447,146.258313 314.935908,142.586556 314.935908,138.098853 L314.935908,9.58736499 C314.935908,5.09966223 311.252447,1.42790542 306.750439,1.42790542 C302.453068,1.42790542 298.769608,5.09966223 298.769608,9.58736499 L298.769608,138.098853 Z M414.593991,147.686218 C438.127212,147.686218 453.679603,139.526759 467.799536,126.67561 C469.231993,125.451691 470.459813,123.411826 470.459813,120.963988 C470.459813,116.884258 466.776352,113.212501 462.683618,113.212501 C460.637251,113.212501 458.79552,114.232434 457.5677,115.456353 C445.289497,126.67561 432.806658,132.795204 415.003264,132.795204 C383.48921,132.795204 359.546715,106.88892 359.546715,73.8431091 L359.546715,73.4351361 C359.546715,40.5933113 383.284574,14.8910137 415.003264,14.8910137 C432.602021,14.8910137 445.084861,21.4185814 456.135243,31.2099328 C457.363063,32.0258788 459.204794,33.0458112 461.455798,33.0458112 C465.753169,33.0458112 469.641266,29.3740544 469.641266,25.0903382 C469.641266,22.2345273 468.004172,19.9906759 466.367079,18.5627705 C453.065692,7.5475001 438.331849,4.26325641e-14 415.207901,4.26325641e-14 C373.052738,4.26325641e-14 342.766505,33.4537842 342.766505,73.8431091 L342.766505,74.251082 C342.766505,115.252366 373.257375,147.686218 414.593991,147.686218 L414.593991,147.686218 Z M482.533383,138.914799 C482.533383,142.994529 485.80757,146.258313 489.900305,146.258313 C493.583765,146.258313 496.244043,144.218448 497.6765,140.750678 L512.61498,107.50088 L591.195477,107.50088 L606.133957,140.342705 C607.566414,143.606488 610.226691,146.258313 614.114789,146.258313 C618.41216,146.258313 621.890984,142.790542 621.890984,138.506826 C621.890984,137.282907 621.48171,135.855002 620.8678,134.427096 L562.750974,7.95547308 C560.909244,3.46777032 557.635056,0.815945957 552.723775,0.815945957 L551.905228,0.815945957 C546.789311,0.815945957 543.71976,3.46777032 541.673393,7.95547308 L483.556567,134.631083 C482.73802,136.262975 482.533383,137.69088 482.533383,138.914799 L482.533383,138.914799 Z M518.958718,92.8138526 L551.905228,19.7866894 L584.851739,92.8138526 L518.958718,92.8138526 Z M704.154946,147.686218 C725.437164,147.686218 743.035921,139.934732 756.132671,130.347367 C759.816132,127.899529 761.657862,124.431758 761.657862,120.556015 L761.657862,77.1068929 C761.657862,72.6191901 757.974401,68.9474333 753.67703,68.9474333 L707.63377,68.9474333 C703.745673,68.9474333 700.471485,72.2112172 700.471485,76.2909469 C700.471485,80.1666902 703.745673,83.4304741 707.63377,83.4304741 L746.105472,83.4304741 L746.105472,118.924123 C736.28291,126.879596 721.139793,133.203177 704.768856,133.203177 C669.980615,133.203177 648.084487,107.908853 648.084487,73.8431091 L648.084487,73.4351361 C648.084487,41.6132438 670.799162,14.8910137 702.517852,14.8910137 C720.525883,14.8910137 731.985539,20.1946624 742.217374,27.946149 C743.854468,29.1700679 745.491562,29.9860139 747.333292,29.9860139 C751.630663,29.9860139 755.314124,26.3142571 755.314124,21.8265543 C755.314124,18.9707435 753.881667,16.7268921 752.039937,15.2989867 C738.943187,5.7116217 724.823254,4.26325641e-14 703.131763,4.26325641e-14 C660.158053,4.26325641e-14 631.304277,34.6777032 631.304277,73.8431091 L631.304277,74.251082 C631.304277,115.04838 659.134869,147.686218 704.154946,147.686218 L704.154946,147.686218 Z" id="CHICAG" sketch:type="MSShapeGroup"></path>
                <path d="M890.346301,46.0980102 L862.369951,34.4254363 L834.965693,45.8086075 L822.920266,72.9189429 L833.915054,101.16228 L861.712194,113.255177 L889.879569,102.050175 L901.766465,74.1710524 L890.346301,46.0980102 L890.346301,46.0980102 Z M887.530154,88.6549664 L867.848637,82.8403354 L862.863269,103.485376 L857.86904,82.8403354 L838.1954,88.6549664 L852.89155,73.8491658 L838.1954,59.0443495 L857.86904,64.8747303 L862.863269,44.2218147 L867.848637,64.8747303 L887.530154,59.0443495 L872.826127,73.8491658 L887.530154,88.6549664 Z M884.173425,23.8523956 L914.17228,20.8363081 C907.679388,14.5531204 900.055114,9.43246522 891.624398,5.84840032 C891.612582,5.90352464 884.173425,23.8523956 884.173425,23.8523956 Z M842.254196,23.1603886 L861.056406,0.0485348022 C851.848788,0.271985154 843.051776,2.18460204 834.964709,5.50190462 L842.254196,23.1603886 Z M913.190567,54.0546145 L936.713269,73.3658436 C936.65222,63.872649 934.774461,54.8007615 931.426594,46.4661619 C931.351759,46.5301454 913.190567,54.0546145 913.190567,54.0546145 Z M795.029583,103.008944 C798.382373,110.758833 803.02803,117.824589 808.691833,123.93945 L811.924493,96.0386716 L795.029583,103.008944 Z M884.113361,124.053636 L891.483591,141.900134 C899.751837,138.404661 907.24515,133.432645 913.664192,127.336486 L884.113361,124.053636 Z M889.886461,5.15737765 C881.723575,1.93063644 872.862559,0.113502746 863.596846,0.0219570071 L882.376409,23.1436544 C882.376409,23.1436544 889.862829,5.19773652 889.886461,5.15737765 Z M840.231691,23.3208397 L833.18837,6.25986397 C825.50797,9.64902503 818.509944,14.3070297 812.458183,19.9700688 L840.231691,23.3208397 Z M931.270032,101.616071 C934.633653,93.3828608 936.543907,84.4192533 936.694561,75.0363073 L913.068469,94.0276185 C913.068469,94.0276185 931.238523,101.598353 931.270032,101.616071 Z M810.936873,126.268453 C817.368715,132.635311 824.962465,137.826841 833.360687,141.507373 L840.826429,123.551611 L810.936873,126.268453 Z M831.420893,100.076528 L821.81547,75.404459 L814.184303,92.5776521 L831.420893,100.076528 Z M892.408193,101.045141 L909.873225,94.0975082 L902.791503,76.6900368 L892.408193,101.045141 Z M882.176521,124.326305 L862.719508,147.682281 C862.766772,147.682281 862.813051,147.686218 862.860315,147.686218 C872.324931,147.686218 881.373033,145.871053 889.701344,142.603953 L882.176521,124.326305 Z M810.921118,53.8705387 L794.127628,46.8914066 C791.149011,54.4414691 789.38055,62.5870712 789.066441,71.0978718 L810.921118,53.8705387 Z M864.881836,33.3820117 L889.321263,43.5780414 L882.240525,26.1715543 L864.881836,33.3820117 Z M832.407529,102.611262 L813.978508,94.6281387 C813.940106,94.7757931 810.586331,124.361742 810.586331,124.361742 L839.839793,121.701994 L832.407529,102.611262 Z M843.708746,24.5749179 L862.370936,32.3346497 L881.052032,24.5749179 L862.337457,1.53393824 L843.708746,24.5749179 Z M915.608909,22.2596966 L912.420558,52.2837459 C912.420558,52.2837459 930.641815,44.7966826 930.742251,44.789792 C927.109815,36.3567561 921.946223,28.7338507 915.608909,22.2596966 Z M911.848467,55.450441 L903.858881,74.1887709 L911.450661,92.8513049 L934.670086,74.1868022 L911.848467,55.450441 Z M912.227563,95.7679719 L915.116575,125.945582 C921.567127,119.480287 926.817369,111.826866 930.534486,103.356425 C930.502977,103.346581 912.227563,95.7679719 912.227563,95.7679719 Z M843.02519,122.76609 L861.65016,146.149628 L880.433661,123.505346 L861.678715,115.345963 L843.02519,122.76609 Z M789.013269,74.4880172 C789.094997,83.9221501 790.966848,92.9369445 794.296006,101.22331 L812.149982,93.8563393 L789.013269,74.4880172 Z M815.511634,53.8892416 L821.93363,70.3842088 L832.374051,46.884516 L815.511634,53.8892416 Z M835.139979,142.256473 C843.021251,145.465496 851.572097,147.344644 860.516809,147.626172 L842.323123,124.982875 L835.139979,142.256473 Z M910.309433,96.0022502 L891.340814,103.547391 L883.454619,122.044552 L913.118687,125.337246 L910.309433,96.0022502 Z M910.204073,54.3824074 L892.857201,47.1453722 L902.833843,71.6688022 L910.204073,54.3824074 Z M859.18357,114.261195 L834.902675,103.697014 L841.719522,121.207844 L859.18357,114.261195 Z M812.0525,21.8659515 C812.0525,21.8659515 814.764272,51.9943432 814.809567,52.0908108 L833.51331,44.3212353 L841.424535,25.5462483 L812.0525,21.8659515 Z M810.145201,22.2252439 C803.715327,28.7860219 798.484778,36.5270508 794.840527,45.0969132 L812.657085,52.5022744 L810.145201,22.2252439 Z M888.813175,104.55341 L864.207339,114.340929 L881.442945,121.839805 L888.813175,104.55341 Z M913.606097,22.8335801 L884.171456,25.7925747 L891.833147,44.6263878 L910.465995,52.3999007 L913.606097,22.8335801 Z M790.014675,73.0410039 L812.493631,91.7419281 L820.828834,72.9238647 L813.727418,54.6521228 L790.014675,73.0410039 Z M836.104953,43.2453268 L859.859051,33.3780743 L843.518508,26.5603776 L836.104953,43.2453268 Z" id="gem" sketch:type="MSShapeGroup"></path>
            </g>
        </g>
    </g>
</svg>