<?xml version="1.0" encoding="UTF-8" standalone="no"?>
<svg width="920px" height="147px" viewBox="0 0 920 147" version="1.1" xmlns="http://www.w3.org/2000/svg" xmlns:xlink="http://www.w3.org/1999/xlink" xmlns:sketch="http://www.bohemiancoding.com/sketch/ns">
    <!-- Generator: Sketch 3.2.2 (9983) - http://www.bohemiancoding.com/sketch -->
    <title>CHICAGO</title>
    <desc>Created with Sketch.</desc>
    <defs></defs>
    <g id="Symbols" stroke="none" stroke-width="1" fill="none" fill-rule="evenodd" sketch:type="MSPage">
        <g id="Lettering" sketch:type="MSArtboardGroup" transform="translate(-262.000000, -1028.000000)" fill="#D0011B">
            <g id="CHICAGO" sketch:type="MSLayerGroup" transform="translate(262.000000, 1028.298650)">
                <path d="M71.0332056,146.381068 C94.3061932,146.381068 109.686602,138.293716 123.650395,125.556137 C125.067012,124.343034 126.281254,122.321196 126.281254,119.89499 C126.281254,115.851315 122.638526,112.212006 118.59105,112.212006 C116.567312,112.212006 114.745947,113.222925 113.531705,114.436028 C101.389276,125.556137 89.0444742,131.621651 71.4379532,131.621651 C40.2723872,131.621651 16.594652,105.944309 16.594652,73.1905338 L16.594652,72.7861662 C16.594652,40.2345752 40.0700134,14.759417 71.4379532,14.759417 C88.8421004,14.759417 101.186903,21.2292985 112.115088,30.9341206 C113.329331,31.7428558 115.150695,32.7537748 117.376807,32.7537748 C121.626657,32.7537748 125.471759,29.1144665 125.471759,24.8686068 C125.471759,22.0380337 123.852769,19.8140119 122.233778,18.3987253 C109.079481,7.48080042 94.508567,0 71.640327,0 C29.9513232,0 0,33.1581424 0,73.1905338 L0,73.5949014 C0,114.233844 30.153697,146.381068 71.0332056,146.381068 L71.0332056,146.381068 Z M147.935256,136.878429 C147.935256,141.326473 151.577984,144.965781 155.827834,144.965781 C160.280058,144.965781 163.922786,141.326473 163.922786,136.878429 L163.922786,80.2669666 L245.681803,80.2669666 L245.681803,136.878429 C245.681803,141.326473 249.324532,144.965781 253.776756,144.965781 C258.026606,144.965781 261.669334,141.326473 261.669334,136.878429 L261.669334,9.50263837 C261.669334,5.05459488 258.026606,1.41528657 253.776756,1.41528657 C249.324532,1.41528657 245.681803,5.05459488 245.681803,9.50263837 L245.681803,65.3053658 L163.922786,65.3053658 L163.922786,9.50263837 C163.922786,5.05459488 160.280058,1.41528657 155.827834,1.41528657 C151.577984,1.41528657 147.935256,5.05459488 147.935256,9.50263837 L147.935256,136.878429 Z M295.465764,136.878429 C295.465764,141.326473 299.108492,144.965781 303.358342,144.965781 C307.810566,144.965781 311.453294,141.326473 311.453294,136.878429 L311.453294,9.50263837 C311.453294,5.05459488 307.810566,1.41528657 303.358342,1.41528657 C299.108492,1.41528657 295.465764,5.05459488 295.465764,9.50263837 L295.465764,136.878429 Z M410.009341,146.381068 C433.282329,146.381068 448.662738,138.293716 462.626531,125.556137 C464.043147,124.343034 465.25739,122.321196 465.25739,119.89499 C465.25739,115.851315 461.614662,112.212006 457.567186,112.212006 C455.543448,112.212006 453.722083,113.222925 452.507841,114.436028 C440.365412,125.556137 428.02061,131.621651 410.414089,131.621651 C379.248523,131.621651 355.570788,105.944309 355.570788,73.1905338 L355.570788,72.7861662 C355.570788,40.2345752 379.046149,14.759417 410.414089,14.759417 C427.818236,14.759417 440.163038,21.2292985 451.091224,30.9341206 C452.305467,31.7428558 454.126831,32.7537748 456.352943,32.7537748 C460.602793,32.7537748 464.447895,29.1144665 464.447895,24.8686068 C464.447895,22.0380337 462.828905,19.8140119 461.209914,18.3987253 C448.055617,7.48080042 433.484703,0 410.616463,0 C368.927459,0 338.976136,33.1581424 338.976136,73.1905338 L338.976136,73.5949014 C338.976136,114.233844 369.129833,146.381068 410.009341,146.381068 L410.009341,146.381068 Z M477.197449,137.687164 C477.197449,141.73084 480.43543,144.965781 484.482906,144.965781 C488.125634,144.965781 490.756494,142.943943 492.17311,139.506819 L506.946398,106.55086 L584.657939,106.55086 L599.431227,139.102451 C600.847844,142.337392 603.478703,144.965781 607.323806,144.965781 C611.573655,144.965781 615.01401,141.528657 615.01401,137.282797 C615.01401,136.069694 614.609263,134.654407 614.002141,133.239121 L556.52798,7.88516801 C554.706616,3.43712452 551.468635,0.80873518 546.611664,0.80873518 L545.802169,0.80873518 C540.742824,0.80873518 537.707217,3.43712452 535.683479,7.88516801 L478.209318,133.441305 C477.399823,135.058775 477.197449,136.474062 477.197449,137.687164 L477.197449,137.687164 Z M513.219986,91.9936267 L545.802169,19.6118281 L578.384351,91.9936267 L513.219986,91.9936267 Z M696.368284,146.381068 C717.41516,146.381068 734.819307,138.698083 747.77123,129.195445 C751.413959,126.769239 753.235323,123.332115 753.235323,119.490623 L753.235323,76.4254745 C753.235323,71.977431 749.592595,68.3381227 745.342745,68.3381227 L699.808639,68.3381227 C695.963536,68.3381227 692.725555,71.5730634 692.725555,75.6167393 C692.725555,79.4582315 695.963536,82.6931722 699.808639,82.6931722 L737.854914,82.6931722 L737.854914,117.873153 C728.140971,125.758321 713.16531,132.026018 696.975405,132.026018 C662.571858,132.026018 640.917861,106.955228 640.917861,73.1905338 L640.917861,72.7861662 C640.917861,41.2454942 663.381354,14.759417 694.749293,14.759417 C712.558188,14.759417 723.891121,20.0161957 734.009812,27.6991799 C735.628802,28.9122827 737.247793,29.7210179 739.069157,29.7210179 C743.319007,29.7210179 746.961735,26.0817096 746.961735,21.6336661 C746.961735,18.8030929 745.545119,16.5790712 743.723754,15.1637846 C730.771831,5.66114626 716.808038,0 695.356415,0 C652.857916,0 624.323209,34.3712452 624.323209,73.1905338 L624.323209,73.5949014 C624.323209,114.03166 651.846047,146.381068 696.368284,146.381068 L696.368284,146.381068 Z M847.339147,146.381068 C890.444767,146.381068 919.788969,112.212006 919.788969,73.1905338 L919.788969,72.7861662 C919.788969,33.7646938 890.849515,0 847.743894,0 C804.638274,0 775.294072,34.1690614 775.294072,73.1905338 L775.294072,73.5949014 C775.294072,112.616374 804.233526,146.381068 847.339147,146.381068 L847.339147,146.381068 Z M847.743894,131.621651 C815.364085,131.621651 791.888724,105.337757 791.888724,73.1905338 L791.888724,72.7861662 C791.888724,40.6389428 814.959338,14.759417 847.339147,14.759417 C879.718955,14.759417 903.194317,41.0433104 903.194317,73.1905338 L903.194317,73.5949014 C903.194317,105.742125 880.123703,131.621651 847.743894,131.621651 L847.743894,131.621651 Z" sketch:type="MSShapeGroup"></path>
            </g>
        </g>
    </g>
</svg>