<?xml version="1.0" encoding="UTF-8" standalone="no"?>
<svg viewBox="0 0 1344 300" version="1.1" xmlns="http://www.w3.org/2000/svg" xmlns:xlink="http://www.w3.org/1999/xlink" xmlns:sketch="http://www.bohemiancoding.com/sketch/ns">
    <!-- Generator: Sketch 3.2.2 (9983) - http://www.bohemiancoding.com/sketch -->
    <title>RailsBridge-Straight</title>
    <desc>Created with Sketch.</desc>
    <defs></defs>
    <g id="Symbols" stroke="none" stroke-width="1" fill="none" fill-rule="evenodd" sketch:type="MSPage">
        <g id="Lettering" sketch:type="MSArtboardGroup" transform="translate(-48.000000, -500.000000)" fill="#D0011B">
            <g id="RailsBridge-Straight" sketch:type="MSLayerGroup" transform="translate(48.000000, 500.000000)">
                <path d="M1331.71602,152.878826 C1312.07391,186.126253 1284.83859,209.162095 1259.43654,209.162095 C1235.866,209.162095 1236.65343,189.267742 1239.00874,177.748948 C1240.31821,172.251342 1243.46095,169.895226 1248.96074,170.155271 C1278.29122,172.251342 1298.45712,164.397619 1311.02633,137.956752 C1326.21623,106.543606 1313.12148,84.0313451 1287.45754,84.0313451 C1254.54085,84.0313451 1228.95722,120.666345 1218.15667,154.905086 C1201.68523,182.73868 1182.96848,199.769042 1161.74976,211.780003 C1157.82134,213.874329 1155.98808,212.041793 1157.55945,208.116677 L1202.34172,97.6444649 C1204.69877,92.1468588 1202.07982,89.7907419 1196.84192,92.4086496 L1180.3443,100.784209 C1174.32072,103.925698 1171.96366,103.142071 1168.82092,97.3826741 C1163.58303,87.9582066 1153.63102,84.0313451 1144.46645,84.0313451 C1116.64798,84.0313451 1095.87448,121.182945 1085.05124,154.583956 C1067.47461,184.208199 1047.3122,209.162095 1034.20698,209.162095 C1028.44704,209.162095 1023.47104,204.189816 1034.99441,175.654622 L1087.36988,45.5498479 C1089.98883,39.0050787 1087.63178,35.0782173 1080.56062,35.0782173 L1075.06257,35.0782173 C1066.94383,35.0782173 1063.01541,38.2197064 1059.87267,45.5498479 L1039.18298,96.989988 C1037.34972,101.17864 1034.99441,101.505006 1032.63561,97.318099 C1029.49287,91.2951662 1022.68535,83.9981849 1009.85251,83.9981849 C980.371878,83.9981849 959.622824,121.434264 948.96545,154.850983 C931.428972,184.351312 911.352114,209.153369 898.290546,209.153369 C892.527113,209.153369 887.551112,204.18458 899.074484,175.651132 L930.501864,97.6427196 C933.119066,91.0979505 930.763759,87.4363703 923.692598,87.4363703 L918.192807,87.4363703 C910.074067,87.4363703 906.145645,90.3160687 903.002907,97.6444649 L880.167423,154.269807 C859.908985,188.512039 845.242874,209.162095 835.423564,209.162095 C831.757036,209.162095 823.900192,206.544187 836.472889,175.654622 L848.256411,146.595847 C850.613464,140.838196 851.397403,136.124217 851.397403,132.984473 C851.397403,119.371353 837.256828,109.425049 826.51914,100.262373 C822.068674,96.5973018 821.021094,92.6704403 823.378148,87.434625 L826.782781,79.3208566 C829.138088,73.8215052 828.352404,70.4182253 823.378148,67.0166906 L821.544884,65.7077368 C817.616461,62.8262931 812.64046,62.8262931 808.450142,65.4442008 C800.069508,70.6800161 792.736452,80.1044836 792.736452,89.5289511 C792.736452,93.1940219 793.784032,96.5973018 795.617296,99.738791 C799.545718,106.020024 799.545718,108.901468 796.40298,115.706282 C771.786612,168.324481 749.787446,201.831954 738.527714,212.827166 C733.027923,218.324772 742.716285,228.271076 748.216077,223.298796 C761.048924,211.780003 785.141502,172.251342 808.186502,123.560005 C810.545301,118.585981 813.948188,117.800609 818.140251,121.72747 C823.378148,126.701495 824.947771,129.319402 824.947771,133.246264 C824.947771,133.769845 824.947771,136.387753 822.854358,141.623568 L813.164249,165.182992 C794.571462,210.209258 806.877027,226.702076 827.566719,226.702076 C841.979665,226.702076 854.632677,216.32469 866.650158,200.833658 C865.995421,219.907733 876.532323,226.702076 890.95749,226.702076 C908.907762,226.702076 925.506657,212.92141 940.920041,192.534891 C940.785601,194.290634 940.715763,195.918973 940.715763,197.381511 C940.715763,213.874329 949.096397,226.702076 965.855921,226.702076 C979.210811,226.702076 990.734184,218.062981 997.021406,212.041793 C1000.68619,208.376723 1002.51945,208.900304 1004.61461,213.612538 C1006.97166,219.371935 1012.73335,226.702076 1026.61378,226.702076 C1044.91673,226.702076 1061.65181,212.589809 1076.82076,192.562815 C1076.70029,194.19988 1076.63743,195.726993 1076.63743,197.121465 C1076.63743,213.350747 1085.01807,226.702076 1100.99365,226.702076 C1111.73134,226.702076 1119.84834,220.417353 1124.56244,215.183283 C1126.6576,213.088957 1127.70518,213.874329 1126.6576,216.492236 L1124.56244,221.466261 C1122.72918,226.178495 1119.06265,230.103611 1114.61044,232.197937 C1095.75576,240.838778 1064.59202,249.476128 1062.75701,274.869832 C1061.71118,289.528369 1072.18697,300 1089.47028,300 C1118.8025,300 1133.46687,268.586853 1143.68077,242.933104 C1145.77592,237.171962 1148.65502,234.030472 1154.15656,231.412565 C1171.90081,222.84328 1192.83319,211.073168 1212.56085,187.234501 C1212.5853,213.1099 1226.98427,226.702076 1253.41295,226.702076 C1295.31264,226.702076 1324.90675,192.409231 1342.9775,160.99434 C1347.42971,153.140617 1336.16823,145.286894 1331.71602,152.878826 L1331.71602,152.878826 Z M1248.96074,147.382965 C1254.98432,133.769845 1268.60286,106.543606 1285.62602,106.543606 C1294.78885,106.543606 1295.83817,114.137283 1287.98133,130.888402 C1281.95775,143.717894 1273.57711,156.020315 1254.46053,155.496733 C1249.22264,155.496733 1246.86558,152.093453 1248.96074,147.382965 L1248.96074,147.382965 Z M1025.56445,130.888402 L1007.75735,174.607459 C1006.44787,178.008994 1003.04324,183.768391 1000.68619,186.649834 C995.186396,193.718185 985.496287,203.92628 975.546029,203.92628 C969.784343,203.92628 966.9035,200.523 966.9035,193.194604 C966.9035,172.513133 989.950245,107.328978 1014.56487,107.328978 C1021.63603,107.328978 1024.78051,112.828329 1026.08999,117.800609 C1027.13757,121.465679 1026.87392,127.486867 1025.56445,130.888402 L1025.56445,130.888402 Z M1110.68202,256.282687 C1102.04123,274.869832 1092.61302,280.891019 1086.06565,281.151065 C1081.35329,281.151065 1078.21055,278.533157 1078.21055,274.34625 C1078.21055,264.398201 1093.3987,256.542733 1105.96791,251.570454 C1110.42187,249.737918 1112.51528,251.832244 1110.68202,256.282687 L1110.68202,256.282687 Z M1143.68077,174.607459 C1142.37129,178.008994 1138.96666,183.768391 1136.60961,186.649834 C1131.10981,193.718185 1121.41971,203.92628 1111.46945,203.92628 C1105.70776,203.92628 1102.82517,200.523 1102.82517,193.194604 C1102.82517,172.513133 1125.87192,107.328978 1150.48829,107.328978 C1157.55945,107.328978 1160.70393,112.828329 1162.0134,117.800609 C1163.05924,121.465679 1162.79734,127.486867 1161.48787,130.888402 L1143.68077,174.607459 Z M933.644602,71.4671336 C942.549026,71.4671336 949.880336,64.1352469 949.880336,55.2361062 C949.880336,46.3352202 942.549026,39.2668695 933.644602,39.2668695 C924.738432,39.2668695 917.669017,46.3352202 917.669017,55.2361062 C917.669017,64.1352469 924.738432,71.4671336 933.644602,71.4671336 Z M127.537546,148.951964 C162.367812,141.360032 183.843189,107.852559 183.843189,72.5125514 C183.843189,29.0587749 149.012922,0 100.564124,0 C39.0205841,0 0,47.9059648 0,93.7176034 C0,105.234652 2.61894833,114.660865 5.23789665,121.203888 C7.85684498,127.748658 12.8328468,129.057611 18.3326383,125.13075 C26.1894833,119.109562 27.2370626,115.706282 24.6181143,107.068932 C23.5705349,102.88028 22.5229556,97.9062556 22.5229556,92.6704403 C22.5229556,63.8752014 50.5439567,21.4650975 100.040334,21.4650975 C136.180075,21.4650975 158.177495,44.240894 158.177495,72.5125514 C158.177495,106.543606 129.632704,143.192567 85.1123286,126.439704 C79.874432,124.345378 78.303063,120.942098 80.3999676,115.706282 L95.0643323,79.5809021 C99.7784393,68.0621084 106.063915,61.2572938 111.039917,57.5904778 C116.801603,52.8799893 117.325393,50.7856632 115.228488,43.4555217 C113.657119,38.7450332 109.730443,36.3871711 104.754441,37.6961249 C89.8264356,41.6229864 77.5191245,55.2361062 70.9717536,70.6800161 L12.3090571,216.670254 C9.6901088,223.213278 12.0471623,227.058112 19.1183228,227.058112 L24.6181143,227.058112 C32.7351081,227.058112 36.6635306,224.000396 39.8062686,216.670254 L67.5653749,147.732019 C69.9241743,142.497949 72.8032715,141.145364 78.0411682,143.237945 L83.8028545,145.573118 C92.7072788,148.712862 108.159074,153.676415 108.682864,177.237584 C108.944758,185.351352 107.897179,195.555956 105.540126,208.90554 L98.7308599,246.076338 C93.7548581,273.300832 105.80202,293.718767 129.632704,296.59672 C136.703865,297.383838 140.632287,293.718767 140.632287,286.910462 C140.632287,278.796693 139.584708,276.964158 129.894599,272.513715 C122.823439,269.110435 121.253816,261.256712 123.609123,248.167174 L131.727863,203.140907 C134.608706,187.695252 135.91818,168.846317 125.182238,155.758524 C121.775859,152.093453 122.56329,150.000873 127.537546,148.951964 Z M363.764939,71.4671336 C372.669363,71.4671336 380.002418,64.1352469 380.002418,55.2361062 C380.002418,46.3352202 372.669363,39.2668695 363.764939,39.2668695 C354.860514,39.2668695 347.7911,46.3352202 347.7911,55.2361062 C347.7911,64.1352469 354.860514,71.4671336 363.764939,71.4671336 Z M679.079333,213.874329 C664.411476,213.874329 651.318481,206.544187 640.318898,198.690464 C635.604791,195.027139 635.081001,191.622114 637.699949,186.649834 C643.461636,176.70004 647.651953,167.015527 650.794691,159.423595 L663.887687,127.225076 C666.248232,121.72747 669.651119,119.894935 675.411059,121.465679 C713.9096,132.722682 718.361812,155.758524 718.361812,167.800899 C718.361812,187.171671 707.100334,213.874329 679.079333,213.874329 L679.079333,213.874329 Z M595.012838,200.784791 C588.205318,206.807723 580.872263,210.734585 573.015418,210.734585 C562.801519,210.734585 554.944674,204.449861 554.944674,196.857929 C554.944674,189.527788 562.015835,181.414019 572.491628,181.414019 C579.299148,181.414019 586.632203,185.077345 594.227153,190.053114 C598.94126,192.931068 599.204901,197.121465 595.012838,200.784791 L595.012838,200.784791 Z M250.626371,130.888402 L232.817522,174.607459 C231.508048,178.008994 228.105161,183.768391 225.748108,186.649834 C220.248316,193.718185 210.558207,203.92628 200.606204,203.92628 C194.844517,203.92628 191.96542,200.523 191.96542,193.194604 C191.96542,172.513133 215.01042,107.328978 239.626788,107.328978 C246.697948,107.328978 249.840686,112.828329 251.150161,117.800609 C252.19774,121.465679 251.935845,127.486867 250.626371,130.888402 L250.626371,130.888402 Z M720.718865,122.774633 C716.790443,119.633144 717.314233,117.538818 722.290234,115.706282 C735.646871,110.734003 759.739449,97.1208833 759.739449,63.6134107 C759.739449,28.7952389 732.240492,0 688.769442,0 C628.797271,0 594.489048,44.240894 594.489048,89.5289511 C594.489048,100.524163 596.846102,110.210422 599.204901,116.753445 C601.560209,123.298215 606.53621,124.868959 612.036002,120.680307 L613.083581,119.894935 C620.416636,114.397329 621.464216,111.255839 619.107162,102.356699 C618.057837,98.1663011 617.012004,93.1940219 617.012004,87.434625 C617.012004,59.1629677 639.796854,21.4650975 685.888599,21.4650975 C717.838022,21.4650975 734.85944,40.5758233 734.85944,62.8262931 C734.85944,92.6704403 707.624124,107.328978 682.48222,103.402116 C677.246069,102.356699 675.150911,98.9534187 677.246069,93.9793942 L683.007755,79.5809021 C687.720116,68.0621084 694.007338,61.2572938 698.981594,57.5904778 C704.743281,52.8799893 705.26707,50.7856632 703.433806,44.240894 L703.171912,43.4555217 C701.602289,38.7450332 697.67212,36.3871711 692.697864,37.6961249 C677.507964,41.6229864 665.197161,55.2361062 658.913431,70.6800161 L629.05742,144.765057 C625.914682,152.61878 621.986259,161.779712 617.273898,170.418807 C614.65495,175.391086 611.250317,176.439995 606.53621,173.298505 C593.179574,164.921201 583.22757,161.517921 572.491628,161.517921 C565.259839,161.517921 559.072137,163.0206 553.895349,165.540772 C554.77357,164.029367 555.646552,162.514471 556.512551,160.99434 C560.964764,153.140617 549.705032,145.286894 545.25282,152.878826 C535.300816,169.895226 522.991759,188.480625 510.946342,198.166883 C507.279815,201.048327 504.922761,199.739373 505.708446,195.287184 C506.49413,191.100277 506.754279,186.649834 506.754279,181.935855 C506.49413,168.06269 502.041918,131.93731 507.803604,98.1663011 C509.373227,90.0525327 507.279815,86.1256712 499.684865,82.984182 L498.37539,82.4606005 C491.30423,79.5809021 486.852018,81.1516467 483.449131,88.2199973 C473.495381,109.161513 459.614955,135.602381 449.402803,152.878826 C431.5957,183.244809 410.906008,209.162095 397.549372,209.162095 C391.787686,209.162095 386.811684,204.189816 398.335056,175.654622 L450.712277,45.5498479 C453.331225,39.0050787 450.974172,35.0782173 443.903011,35.0782173 L438.40322,35.0782173 C430.286226,35.0782173 426.357803,38.2197064 423.215065,45.5498479 L379.412282,154.186034 C361.798981,183.927211 341.554511,209.09752 328.410882,209.09752 C322.649196,209.09752 317.673194,204.156656 329.196567,175.621462 L360.622201,97.6287574 C363.241149,91.0839883 360.884095,87.4363703 353.812935,87.4363703 L348.313143,87.4363703 C340.194404,87.4363703 336.267727,90.3160687 333.124989,97.6444649 L310.272046,154.315184 C292.657,184.056361 272.416021,209.162095 259.530795,209.162095 C252.72153,209.162095 249.316897,202.355535 260.054585,175.654622 L291.480219,97.6444649 C293.837272,92.1468588 291.218324,89.7907419 285.980427,92.4086496 L269.220904,101.047745 C263.459218,103.925698 261.102164,103.142071 257.697531,97.3826741 C254.554793,91.3614865 247.745528,84.0313451 234.912681,84.0313451 C190.392305,84.0313451 165.775937,169.371644 165.775937,197.381511 C165.775937,213.874329 174.156572,226.702076 190.916095,226.702076 C204.272731,226.702076 215.796104,218.062981 222.08158,212.041793 C225.748108,208.376723 227.579626,208.900304 229.67653,213.612538 C232.031838,219.371935 237.793524,226.702076 251.67395,226.702076 C267.988252,226.702076 283.055935,215.48696 296.88049,198.870227 C295.419117,219.44 306.170773,226.702076 321.077827,226.702076 C337.097061,226.702076 352.035542,215.720826 366.01898,198.875463 C364.559353,219.441746 375.309263,226.702076 390.216317,226.702076 C416.404054,226.702076 439.712694,197.381511 460.664281,160.99434 C465.902177,151.569872 471.924012,140.57466 477.685699,129.579448 C479.520709,126.177913 481.614121,126.701495 481.614121,130.628356 C481.614121,147.64301 482.661701,163.612247 482.661701,175.654622 C482.661701,200.262954 477.161909,207.067769 466.948011,207.067769 C456.997753,207.067769 453.59312,198.954 443.903011,204.973443 C439.712694,207.59135 439.188904,212.041793 442.855432,215.445073 C448.355223,220.680889 458.569122,226.702076 473.759022,226.702076 C500.704509,226.702076 519.08778,213.705037 533.816745,195.641475 C533.766112,196.400668 533.731193,197.156371 533.731193,197.905092 C533.731193,215.706864 547.349724,232.985055 574.062997,232.985055 C591.084415,232.985055 603.917262,226.178495 614.65495,216.492236 C619.367311,212.041793 622.510049,212.041793 627.487797,215.706864 C646.604374,229.843565 662.056169,237.957334 681.95843,237.957334 C723.861603,237.957334 743.763865,201.831954 743.763865,171.464225 C743.763865,145.810475 729.621544,130.104774 720.718865,122.774633 L720.718865,122.774633 Z" sketch:type="MSShapeGroup"></path>
            </g>
        </g>
    </g>
</svg>