<?xml version="1.0" encoding="UTF-8" standalone="no"?>
<svg width="1202px" height="360px" viewBox="0 0 1202 360" version="1.1" xmlns="http://www.w3.org/2000/svg" xmlns:xlink="http://www.w3.org/1999/xlink" xmlns:sketch="http://www.bohemiancoding.com/sketch/ns">
    <!-- Generator: Sketch 3.2.2 (9983) - http://www.bohemiancoding.com/sketch -->
    <title>RailsBridge-Curved</title>
    <desc>Created with Sketch.</desc>
    <defs></defs>
    <g id="Symbols" stroke="none" stroke-width="1" fill="none" fill-rule="evenodd" sketch:type="MSPage">
        <g id="Lettering" sketch:type="MSArtboardGroup" transform="translate(-119.000000, -74.000000)" fill="#D0011B">
            <g id="RailsBridge-Curved" sketch:type="MSLayerGroup" transform="translate(119.000000, 74.000000)">
                <path d="M1103.96676,301.207848 C1107.98264,298.077563 1111.51746,298.188348 1115.23622,301.464777 C1134.67893,319.435634 1153.27744,325.253063 1176.99778,313.733705 C1205.35654,300.19192 1208.82298,276.999991 1190.77864,262.567205 C1169.15467,245.268134 1120.61274,265.103491 1107.60534,269.975705 C1104.16248,271.265063 1053.16811,291.475205 1030.68342,292.031491 C1026.67462,292.029134 1025.99312,289.79692 1028.91012,287.343134 L1111.35475,218.585277 C1115.55928,215.219277 1114.47691,212.237491 1109.20651,212.096063 L1092.54638,211.754277 C1086.42941,211.695348 1084.89192,210.073634 1084.84004,204.166634 C1084.67733,194.45992 1078.56979,186.867563 1071.15822,183.235205 C1047.4591,171.619205 999.726007,208.541491 993.811838,213.753134 C987.154862,219.62242 943.208913,248.132063 931.84041,244.209777 C926.935517,242.519705 924.162367,236.824848 942.355273,215.921705 L1025.09468,120.785063 C1029.24497,115.983563 1028.31823,112.169705 1022.29794,110.093063 L1017.61943,108.47842 C1010.70778,106.095348 1006.5174,107.391777 1001.68796,112.709491 L969.002044,150.30592 C966.210028,153.332491 964.125449,152.86342 963.351985,148.60642 C962.444108,142.557991 958.803169,134.322134 947.880351,130.553063 C923.546897,122.159277 875.240782,171.418848 874.431946,172.26742 C852.574519,195.233063 829.106496,213.701277 817.398424,210.95992 C812.347328,209.776634 809.008228,204.39292 824.977426,181.743134 L868.572015,119.806848 C872.212954,114.609348 870.89948,110.910991 864.699979,109.456634 L859.877621,108.327563 C852.760811,106.658705 848.726065,108.377063 844.462582,114.156777 C844.462582,114.156777 791.602934,189.887063 767.708091,195.200063 C764.484539,195.916634 757.471486,192.296063 770.247788,165.12292 L782.229402,139.557348 C784.622895,134.491848 785.556711,130.293777 785.705273,127.46992 C786.353756,115.229277 774.112748,105.612134 764.89721,96.8624198 C761.067621,93.3549912 760.313022,89.7744912 762.680576,85.1780626 L766.130508,78.0453484 C768.51221,73.2132055 767.969842,70.1182769 763.65448,66.8206341 L762.072181,65.5548484 C758.676486,62.7804912 754.20313,62.5424198 750.309872,64.6968484 C742.523355,69.0033484 735.482005,77.1284198 735.033962,85.6023484 C734.857103,88.8976341 735.637641,92.0067055 737.135048,94.9177769 C740.368032,100.754063 740.231261,103.344563 737.080811,109.312848 C712.438443,155.449205 691.059715,184.529277 680.410439,193.875348 C675.203707,198.556634 683.440625,207.963991 688.623776,203.754134 C700.711506,194.009705 724.257347,159.616634 747.303267,116.935848 C749.65903,112.577491 752.757602,112.032991 756.33723,115.761991 C760.808228,120.483348 762.095762,122.911205 761.909471,126.444563 C761.883531,126.913634 761.760909,129.26842 759.626809,133.874277 L749.791085,154.59592 C730.926114,194.193563 741.205165,209.609277 759.808384,210.594563 C771.452788,211.212134 782.21997,204.225563 792.659373,193.113991 C785.68405,212.442563 793.72996,221.63542 807.364617,224.829348 C822.317465,228.33442 838.760645,220.676063 855.550469,207.287491 C850.982788,221.121563 854.430361,234.213134 868.505987,239.068848 C879.87449,242.991134 892.221613,239.021705 899.338424,235.74292 C903.538238,233.699277 904.943678,234.682205 905.3422,239.309277 C905.655831,244.902777 908.4054,252.834563 920.221946,256.910063 C934.641858,261.883634 951.469412,256.176991 968.796887,245.317634 C962.493629,257.930705 963.734001,271.529063 976.090557,278.124348 C984.62224,282.675991 993.73402,281.129705 999.700067,278.968205 C1002.25391,278.192705 1002.75148,279.260491 1000.81074,280.896348 L997.033032,283.958277 C993.578384,286.923563 989.001271,288.488705 984.575077,288.264777 C965.934128,287.130991 937.51405,280.780848 925.282474,300.173063 C918.231692,311.371848 922.110801,324.131063 935.837426,331.457063 C959.135664,343.893348 984.112885,325.161134 1003.10991,309.113705 C1007.22012,305.427134 1010.83983,304.154277 1016.32011,304.406491 C1033.32452,305.09242 1053.92271,304.653991 1078.32691,295.293777 C1065.76284,312.684777 1068.74114,329.484134 1086.53789,343.723634 C1115.9979,367.287991 1156.10718,359.82292 1186.49157,347.900491 C1194.04228,344.880991 1190.54754,333.029277 1183.14304,335.860205 C1150.62219,348.188063 1118.50694,349.067277 1100.64653,334.780634 C1084.07601,321.524063 1095.82653,307.97992 1103.96676,301.207848 L1103.96676,301.207848 Z M1128.05733,285.452705 C1139.95405,279.26992 1164.85109,267.790634 1176.81856,277.362991 C1183.26331,282.518063 1179.72612,288.446277 1164.77328,295.805277 C1153.31752,301.436491 1140.50113,305.37292 1127.35461,294.25192 C1123.67122,291.305491 1123.93062,287.588277 1128.05733,285.452705 L1128.05733,285.452705 Z M919.481496,207.03292 C917.366261,209.543277 912.774999,213.446705 909.92403,215.205134 C903.165654,219.60592 891.917416,225.451634 883.447044,222.528777 C878.542152,220.836348 877.089549,217.095563 879.244872,210.856205 C885.32175,193.253063 924.091623,144.540348 945.045889,151.767348 C951.066173,153.843991 952.12497,159.444563 951.778326,164.064563 C951.592034,167.491848 949.599422,172.538491 947.484187,175.051205 L919.481496,207.03292 L919.481496,207.03292 Z M971.237543,305.726491 C956.485136,316.826277 946.441897,317.611205 941.131408,315.044277 C937.386711,313.04542 936.000136,309.634634 937.778159,306.306348 C941.999197,298.407563 957.397729,298.60792 969.492533,299.986848 C973.805537,300.418205 974.581359,302.970991 971.237543,305.726491 L971.237543,305.726491 Z M1021.37592,261.412205 C1014.00915,264.693348 1001.98037,268.695777 994.075948,264.476491 C989.501193,262.032134 990.302954,258.722705 991.767347,252.287705 C995.137103,237.470705 1046.50406,193.858848 1066.0576,204.29392 C1071.67229,207.292205 1071.83736,212.991777 1070.76677,217.496277 C1070.04283,220.852848 1067.28147,225.524705 1064.79601,227.672063 L1032.10065,254.845205 C1029.61991,256.992563 1024.46977,260.122848 1021.37592,261.412205 Z M876.709891,97.5035626 C884.515273,99.3303484 892.452709,94.4133484 894.282611,86.6088484 C896.110155,78.8067055 891.136878,71.1012055 883.329138,69.2744198 C875.523756,67.4429198 867.871653,72.1878484 866.039392,79.9899912 C864.20949,87.7944912 868.902152,95.6720626 876.709891,97.5035626 Z M197.660557,334.771205 C190.645146,335.612705 185.648287,330.412848 181.092396,319.336634 L165.432112,281.23342 C160.133414,268.11592 151.990821,253.176348 137.497807,248.440848 C133.139999,247.30942 132.720253,245.338848 135.988609,242.133134 C158.74448,219.504563 158.803433,183.675991 141.676398,156.851705 C120.616017,123.87292 80.0964177,118.684848 43.3262318,142.147848 C-3.38579367,171.949205 -9.78337685,227.205348 12.4206936,261.973205 C18.0023668,270.715848 24.5579441,276.601634 29.7175136,280.297634 C34.877083,283.998348 39.2867699,282.581705 41.5576408,276.938705 C44.6043335,268.563777 43.7483355,265.473563 37.5747738,260.186491 C34.7497445,257.513491 31.5450576,254.246491 29.0053609,250.272348 C15.0499989,228.41692 15.7645097,182.66242 53.3317406,158.692634 C80.7614079,141.190848 108.495273,147.823848 122.198316,169.28092 C138.691017,195.110491 134.788326,236.74942 92.8774353,245.59342 C87.8876506,246.540991 85.0461143,244.71892 84.0981496,239.731205 L77.7217895,205.208491 C75.7150282,194.184134 77.1888541,185.974205 79.188541,180.783777 C81.2778365,174.419491 80.6600087,172.573848 75.5169461,168.02692 C72.0410752,165.210134 67.916721,165.325634 64.7757034,168.726991 C55.3479343,178.935777 52.6054392,195.228348 55.1215547,210.120777 L81.2660459,349.194563 C82.4498228,355.431563 86.0153022,357.072134 91.3800282,353.647205 L95.553903,350.983634 C101.718032,347.05192 103.30269,342.964634 102.13542,335.879063 L89.8378169,270.183134 C89.0879343,265.068134 90.6419363,262.680348 95.631721,261.732777 L101.145009,260.730991 C109.426731,258.802848 123.563668,255.095063 135.380214,272.724134 C139.511643,278.756063 143.664294,287.010777 148.347523,298.284991 L161.194568,329.797634 C170.612905,352.869348 189.652377,362.531277 209.135175,353.175777 C214.881917,350.349563 216.086917,345.663563 212.787905,340.499063 C208.854559,334.339848 207.173218,333.45592 197.660557,334.771205 Z M322.751819,96.5064912 C330.491173,94.4133484 335.13903,86.3165626 333.045018,78.5827769 C330.951007,70.8466341 322.914529,66.4269912 315.175175,68.5201341 C307.435821,70.6132769 302.953032,78.4201341 305.047044,86.1562769 C307.143414,93.8924198 315.012465,98.5996341 322.751819,96.5064912 Z M664.427093,152.432063 C663.502709,169.851348 652.105909,193.32142 626.909382,191.98492 C613.722768,191.287205 602.300028,184.071991 592.782651,176.486705 C588.721966,172.967491 588.413052,169.881991 591.004627,165.53542 C596.659402,156.865848 600.887514,148.356563 604.078052,141.681134 L617.38493,113.355348 C619.766633,108.523205 622.914725,107.038205 628.020058,108.72592 C662.097269,120.681348 665.002474,141.605705 664.427093,152.432063 L664.427093,152.432063 Z M551.949422,176.21092 C545.540048,181.299991 538.758091,184.482134 531.695517,184.104991 C522.512993,183.61942 515.747543,177.59692 516.110694,170.770634 C516.459696,164.180063 523.203923,157.221777 532.622259,157.719134 C538.743942,158.04442 545.162748,161.688563 551.753698,166.523063 C555.854471,169.337491 555.889842,173.115991 551.949422,176.21092 L551.949422,176.21092 Z M234.798609,222.144563 C234.8104,225.428063 233.834138,231.372777 232.794206,234.557277 C230.487964,242.281634 225.689187,254.010777 217.336721,257.256563 C212.502572,259.135205 208.972465,257.218848 206.58133,251.069063 C199.830028,233.71342 197.889294,171.494277 218.551153,163.463491 C224.484187,161.158205 228.915097,164.745777 231.638727,168.493634 C233.713874,171.225563 235.461242,176.366491 235.473032,179.647634 L234.798609,222.144563 L234.798609,222.144563 Z M668.695292,112.061277 C665.311388,109.048848 665.882054,107.19142 670.44266,105.781848 C682.688384,101.94442 705.000928,90.8540626 706.599735,60.7274198 C708.259852,29.4222055 684.909735,2.22313407 645.823874,0.151205499 C591.900713,-2.70800879 558.943609,35.4352769 556.78357,76.1549198 C556.260067,86.0384198 557.917827,94.8588484 559.724148,100.85542 C561.532827,106.851991 565.930723,108.501991 571.073786,104.999277 L572.052406,104.343991 C578.909823,99.7499198 580.001633,96.9732055 578.306144,88.8599198 C577.563335,85.0437055 576.860615,80.5227055 577.134157,75.3440626 C578.483003,49.9246341 600.767249,17.1179198 642.208874,19.3124198 C670.935508,20.8351341 685.32948,38.8295626 684.268326,58.8346341 C682.846379,85.6683484 657.656926,97.5507055 635.238267,92.8222769 C630.580977,91.6295626 628.857191,88.4709912 630.9795,84.0984912 L636.846506,71.4288484 C641.633492,61.2954912 647.608971,55.4780626 652.259187,52.4184912 C657.664001,48.4561341 658.234666,46.5987055 656.89997,40.6257055 L656.701887,39.9091341 C655.513394,35.5955626 652.094118,33.2902769 647.557093,34.2307769 C633.712562,37.0381341 621.995058,48.6894912 615.606907,62.2760626 L585.231946,127.465205 C582.031975,134.376348 578.060899,142.425991 573.413042,149.968848 C570.819108,154.31542 567.711105,155.095634 563.619764,152.045491 C552.010733,143.877991 543.226731,140.342277 533.572582,139.833134 C527.266966,139.49842 521.80084,140.50492 517.11997,142.404777 C516.457337,136.77592 508.302954,133.652705 505.673649,139.790705 C498.7054,156.116277 489.810566,174.108348 480.142269,184.121491 C477.192259,187.107991 474.940253,186.205205 475.138335,182.141491 C475.367073,178.308777 475.098247,174.306348 474.565312,170.094134 C472.763707,157.73092 464.703649,125.961348 466.035987,95.1417055 C466.524118,87.7143484 464.208443,84.4449912 457.068052,82.4956341 L455.839471,82.1750626 C449.196643,80.4001341 445.397709,82.3070626 443.155136,89.0060626 C436.976858,107.783063 394.667445,207.546777 382.879197,209.922777 C377.792729,210.948134 372.515253,207.443063 377.606437,180.208634 L400.725459,56.2912769 C401.871506,50.0472055 399.138443,47.2327769 392.898854,48.4914912 L388.043482,49.4697055 C380.87951,50.9122769 377.924784,54.1509912 376.455674,61.1799912 C376.455674,61.1799912 356.836105,160.96492 356.579069,162.18592 C353.287132,177.806705 336.035116,221.359634 324.426085,224.499348 C319.417435,225.854705 313.923013,222.700848 317.222024,195.190634 L326.180527,120.000134 C326.916261,113.694777 324.006339,111.064205 317.861075,112.725991 L313.081163,114.020063 C306.023306,115.926991 303.287885,119.354277 302.280968,126.46342 C302.280968,126.46342 294.850527,177.141991 294.529823,179.37892 C291.190723,202.752348 279.485009,238.158991 268.496163,242.430134 C262.782435,244.650563 257.703042,240.04942 257.997807,214.139705 L258.905684,138.423563 C259.087259,133.039848 256.120743,131.917848 252.578844,135.823634 L241.332964,148.54042 C237.439705,152.835134 235.204206,152.94592 230.466741,149.221634 C225.863688,145.195634 217.756467,141.26392 206.986926,145.450205 C169.62721,159.972563 176.826555,239.62042 185.968991,263.125848 C191.35494,276.964634 202.574881,284.997777 216.641075,279.529205 C227.849226,275.173205 234.699568,264.165348 238.008013,257.063277 C239.889793,252.792134 241.597073,252.631848 244.893727,255.903563 C248.751613,259.967277 255.979255,264.23842 267.628375,259.712705 C280.36223,254.762705 289.028326,242.031777 295.147651,225.43042 C299.208335,241.527348 309.826956,244.808491 322.178795,241.46842 C335.499823,237.864348 345.59494,225.758063 353.617269,209.017634 C356.633306,225.279563 367.004324,229.230134 379.528306,226.707991 C402.005919,222.177563 434.642318,136.556705 442.681153,126.604848 C444.86949,123.898848 445.864617,123.590063 446.307944,127.097491 C448.232171,142.298705 450.972308,156.44392 452.330586,167.20192 C455.113169,189.186991 450.967592,195.885991 441.84402,197.040991 C432.953903,198.162991 428.994617,191.298991 421.019451,197.771705 C417.571878,200.583777 417.607249,204.616848 421.267054,207.242705 C426.770909,211.299348 436.575977,215.525705 450.144607,213.809705 C472.961789,210.92692 487.586858,198.481205 498.51675,182.033063 C502.360488,193.606634 513.318678,203.195491 531.575253,204.16192 C546.881819,204.972777 558.743169,199.466491 568.85951,191.268348 C573.311643,187.492205 576.136672,187.640705 580.435527,191.174063 C596.949451,204.795991 610.45677,212.826777 628.352553,213.776705 C666.025899,215.773205 685.64311,184.239348 687.093355,156.936563 C688.314862,133.87192 676.349754,119.076134 668.695292,112.061277 L668.695292,112.061277 Z" sketch:type="MSShapeGroup"></path>
            </g>
        </g>
    </g>
</svg>