<?xml version="1.0" encoding="UTF-8" standalone="no"?>
<svg width="808px" height="173px" viewBox="0 0 808 173" version="1.1" xmlns="http://www.w3.org/2000/svg" xmlns:xlink="http://www.w3.org/1999/xlink" xmlns:sketch="http://www.bohemiancoding.com/sketch/ns">
    <!-- Generator: Sketch 3.2.2 (9983) - http://www.bohemiancoding.com/sketch -->
    <title>Rails Bridge-Separate</title>
    <desc>Created with Sketch.</desc>
    <defs></defs>
    <g id="Symbols" stroke="none" stroke-width="1" fill="none" fill-rule="evenodd" sketch:type="MSPage">
        <g id="Lettering" sketch:type="MSArtboardGroup" transform="translate(-316.000000, -789.000000)" fill="#D0011B">
            <g id="Rails-Bridge-Separate" sketch:type="MSLayerGroup" transform="translate(316.000000, 789.000000)">
                <path d="M312.656181,88.1495 C306.955181,97.8995 299.906181,108.5485 293.006181,114.0985 C290.907181,115.7485 289.556181,114.9985 290.006181,112.4485 C290.456181,110.0485 290.606181,107.4985 290.606181,104.7985 C290.456181,96.8495 287.907181,76.1505 291.206181,56.8005 C292.106181,52.1515 290.907181,49.9015 286.556181,48.1015 L285.806181,47.8015 C281.756181,46.1515 279.206181,47.0515 277.257181,51.1015 C271.557181,63.1005 263.607181,78.2495 257.757181,88.1495 C247.558181,105.5485 235.708181,120.3985 228.058181,120.3985 C224.758181,120.3985 221.909181,117.5485 228.508181,101.1995 L258.507181,26.9985 C260.007181,23.2485 258.658181,21.3445 254.608181,21.3445 L251.457181,21.3445 C246.808181,21.3445 244.558181,22.7985 242.758181,26.9985 L217.671181,89.0705 C207.582181,106.1115 195.987181,120.4475 188.459181,120.4475 C185.160181,120.4475 182.309181,117.5735 188.910181,101.2235 L206.909181,56.3595 C208.409181,52.6095 207.058181,50.3445 203.008181,50.3445 L199.859181,50.3445 C195.208181,50.3445 192.959181,52.1485 191.159181,56.3475 L178.070181,88.8955 C167.981181,105.9365 156.388181,120.3595 149.008181,120.3595 C145.108181,120.3595 143.159181,116.4785 149.308181,101.1795 L167.307181,56.4915 C168.658181,53.3415 167.158181,51.9965 164.158181,53.4965 L154.558181,58.4485 C151.258181,60.0975 149.908181,59.6495 147.958181,56.3505 C146.158181,52.8995 142.258181,48.7005 134.909181,48.7005 C109.410181,48.7005 95.3101808,97.5995 95.3101808,113.6475 C95.3101808,123.0985 100.110181,130.4475 109.709181,130.4475 C117.359181,130.4475 123.959181,125.4975 127.559181,122.0475 C129.659181,119.9475 130.708181,120.2475 131.909181,122.9485 C133.258181,126.2475 136.558181,130.4485 144.508181,130.4485 C153.852181,130.4485 162.482181,124.0225 170.400181,114.5005 C169.563181,126.2875 175.720181,130.4485 184.259181,130.4485 C193.434181,130.4485 201.990181,124.1565 209.999181,114.5045 C209.163181,126.2885 215.321181,130.4485 223.859181,130.4485 C238.858181,130.4485 252.207181,113.6485 264.207181,92.7995 C267.207181,87.3995 270.657181,81.0995 273.956181,74.7995 C275.007181,72.8505 276.206181,73.1505 276.206181,75.4005 C276.206181,85.1495 276.807181,94.2995 276.807181,101.1995 C276.807181,115.2985 273.657181,119.1985 267.807181,119.1985 C262.108181,119.1985 260.158181,114.5485 254.608181,117.9975 C252.207181,119.4975 251.908181,122.0475 254.007181,123.9975 C257.158181,126.9975 263.007181,130.4485 271.707181,130.4485 C296.006181,130.4485 308.156181,111.9985 319.105181,92.7995 C321.655181,88.2995 315.205181,83.7995 312.656181,88.1495 L312.656181,88.1495 Z M143.909181,75.5495 L133.708181,100.5995 C132.958181,102.5485 131.009181,105.8485 129.659181,107.4985 C126.509181,111.5485 120.959181,117.3985 115.259181,117.3985 C111.959181,117.3985 110.310181,115.4485 110.310181,111.2485 C110.310181,99.3995 123.509181,62.0505 137.609181,62.0505 C141.659181,62.0505 143.458181,65.2005 144.208181,68.0505 C144.808181,70.1505 144.659181,73.6005 143.909181,75.5495 Z M208.708181,41.5015 C213.808181,41.5015 218.008181,37.3015 218.008181,32.2015 C218.008181,27.1025 213.808181,23.0525 208.708181,23.0525 C203.609181,23.0525 199.559181,27.1025 199.559181,32.2015 C199.559181,37.3015 203.609181,41.5015 208.708181,41.5015 Z M73.4101808,85.8995 C93.3591808,81.5495 105.659181,62.3505 105.659181,42.1015 C105.659181,17.2025 85.7091808,0.5535 57.9601808,0.5535 C22.7111808,0.5535 0.363180797,28.0015 0.363180797,54.2505 C0.363180797,60.8505 1.8631808,66.2505 3.3631808,69.9995 C4.8631808,73.7495 7.7121808,74.4995 10.8621808,72.2495 C15.3621808,68.8005 15.9621808,66.8505 14.4621808,61.9015 C13.8621808,59.5005 13.2621808,56.6515 13.2621808,53.6515 C13.2621808,37.1525 29.3111808,12.8525 57.6601808,12.8525 C78.3601808,12.8525 90.9581808,25.9025 90.9581808,42.1015 C90.9581808,61.6005 74.6101808,82.5995 49.1111808,72.9995 C46.1111808,71.8005 45.2101808,69.8505 46.4101808,66.8505 L54.8101808,46.1515 C57.5101808,39.5515 61.1101808,35.6525 63.9601808,33.5515 C67.2601808,30.8525 67.5601808,29.6525 66.3601808,25.4515 C65.4591808,22.7525 63.2101808,21.4025 60.3601808,22.1525 C51.8101808,24.4025 44.7611808,32.2015 41.0111808,41.0515 L7.4121808,124.5465 C5.9121808,128.2955 7.2621808,130.3445 11.3121808,130.3445 L14.4621808,130.3445 C19.1121808,130.3445 21.3621808,128.7455 23.1621808,124.5465 L39.0611808,85.1235 C40.4101808,82.1245 42.0611808,81.3875 45.0611808,82.5865 L48.3611808,83.9435 C53.4601808,85.7435 62.3101808,88.5965 62.6101808,102.0965 C62.7601808,106.7455 62.1601808,112.5965 60.8101808,120.2465 L56.9101808,141.5465 C54.0601808,157.1455 60.9601808,168.8465 74.6101808,170.4955 C78.6601808,170.9455 80.9101808,168.8465 80.9101808,164.9455 C80.9101808,160.2965 80.3091808,159.2465 74.7591808,156.6965 C70.7091808,154.7465 69.8101808,150.2465 71.1601808,142.7465 L75.8091808,116.9485 C77.4591808,108.0985 78.2091808,97.2985 72.0601808,89.7995 C70.1101808,87.6995 70.5601808,86.4995 73.4101808,85.8995 Z M450.653181,70.9005 C448.403181,69.1005 448.702181,67.9005 451.553181,66.8505 C459.202181,64.0005 473.002181,56.2005 473.002181,37.0015 C473.002181,17.0525 457.252181,0.5535 432.354181,0.5535 C398.005181,0.5535 378.356181,25.9025 378.356181,51.8515 C378.356181,58.1515 379.705181,63.7005 381.056181,67.4505 C382.406181,71.2005 385.255181,72.1005 388.406181,69.7005 L389.005181,69.2495 C393.205181,66.1005 393.805181,64.3005 392.455181,59.2005 C391.855181,56.8005 391.255181,53.9505 391.255181,50.6515 C391.255181,34.4515 404.305181,12.8525 430.703181,12.8525 C449.003181,12.8525 458.752181,23.8025 458.752181,36.5515 C458.752181,53.6515 443.153181,62.0505 428.753181,59.8005 C425.754181,59.2005 424.554181,57.2505 425.754181,54.4015 L429.054181,46.1515 C431.753181,39.5515 435.354181,35.6525 438.203181,33.5515 C441.503181,30.8525 441.803181,29.6525 440.753181,25.9025 L440.603181,25.4515 C439.703181,22.7525 437.453181,21.4025 434.604181,22.1525 C425.904181,24.4025 418.854181,32.2015 415.254181,41.0515 L398.155181,83.4995 C396.355181,87.9995 394.105181,93.2485 391.406181,98.1995 C389.906181,101.0485 387.955181,101.6495 385.255181,99.8495 C377.606181,95.0495 371.906181,93.0995 365.756181,93.0995 C350.757181,93.0995 343.557181,104.3485 343.557181,113.9485 C343.557181,124.1485 351.357181,134.0475 366.657181,134.0475 C376.406181,134.0475 383.755181,130.1485 389.906181,124.5985 C392.605181,122.0475 394.405181,122.0475 397.255181,124.1485 C408.205181,132.2475 417.054181,136.8975 428.453181,136.8975 C452.452181,136.8975 463.852181,116.1985 463.852181,98.7985 C463.852181,84.0995 455.752181,75.1005 450.653181,70.9005 L450.653181,70.9005 Z M378.656181,115.5985 C374.756181,119.0485 370.556181,121.2985 366.056181,121.2985 C360.206181,121.2985 355.706181,117.6985 355.706181,113.3485 C355.706181,109.1485 359.756181,104.4985 365.756181,104.4985 C369.656181,104.4985 373.856181,106.5985 378.205181,109.4495 C380.906181,111.0985 381.056181,113.4985 378.656181,115.5985 L378.656181,115.5985 Z M426.804181,123.0985 C418.404181,123.0985 410.905181,118.8985 404.605181,114.3985 C401.905181,112.2985 401.605181,110.3485 403.105181,107.4985 C406.405181,101.7985 408.804181,96.2485 410.605181,91.8995 L418.104181,73.4505 C419.455181,70.3005 421.404181,69.2495 424.703181,70.1505 C446.753181,76.6005 449.303181,89.7995 449.303181,96.6995 C449.303181,107.7985 442.853181,123.0985 426.804181,123.0985 Z M572.606181,41.5015 C577.705181,41.5015 581.905181,37.3015 581.905181,32.2015 C581.905181,27.1025 577.705181,23.0525 572.606181,23.0525 C567.505181,23.0525 563.455181,27.1025 563.455181,32.2015 C563.455181,37.3015 567.505181,41.5015 572.606181,41.5015 Z M692.904181,100.5995 C692.154181,102.5485 690.203181,105.8485 688.854181,107.4985 C685.703181,111.5485 680.154181,117.3985 674.454181,117.3985 C671.155181,117.3985 669.504181,115.4485 669.504181,111.2485 C669.504181,99.3995 682.704181,62.0505 696.803181,62.0505 C700.853181,62.0505 702.654181,65.2005 703.404181,68.0505 C704.003181,70.1505 703.853181,73.6005 703.103181,75.5495 L692.904181,100.5995 L692.904181,100.5995 Z M674.004181,147.3975 C669.055181,158.0465 663.655181,161.4965 659.905181,161.6465 C657.205181,161.6465 655.406181,160.1465 655.406181,157.7465 C655.406181,152.0465 664.105181,147.5465 671.304181,144.6975 C673.855181,143.6475 675.054181,144.8475 674.004181,147.3975 L674.004181,147.3975 Z M625.253181,75.5495 L615.054181,100.5995 C614.304181,102.5485 612.354181,105.8485 611.004181,107.4985 C607.854181,111.5485 602.304181,117.3985 596.605181,117.3985 C593.305181,117.3985 591.655181,115.4485 591.655181,111.2485 C591.655181,99.3995 604.855181,62.0505 618.953181,62.0505 C623.003181,62.0505 624.804181,65.2005 625.554181,68.0505 C626.154181,70.1505 626.003181,73.6005 625.253181,75.5495 L625.253181,75.5495 Z M753.203181,84.9995 C756.653181,77.2005 764.453181,61.6005 774.203181,61.6005 C779.451181,61.6005 780.052181,65.9505 775.552181,75.5495 C772.102181,82.9005 767.302181,89.9495 756.353181,89.6495 C753.353181,89.6495 752.003181,87.6995 753.203181,84.9995 L753.203181,84.9995 Z M800.601181,88.1495 C789.351181,107.1995 773.752181,120.3985 759.203181,120.3985 C745.703181,120.3985 746.154181,108.9985 747.503181,102.3995 C748.253181,99.2485 750.053181,97.8995 753.203181,98.0485 C770.002181,99.2485 781.552181,94.7485 788.751181,79.5995 C797.451181,61.6005 789.951181,48.7005 775.252181,48.7005 C756.399181,48.7005 741.746181,69.6915 735.560181,89.3095 C726.126181,105.2575 715.406181,115.0165 703.253181,121.8985 C701.003181,123.0985 699.953181,122.0475 700.853181,119.7985 L726.502181,56.5005 C727.852181,53.3515 726.352181,52.0005 723.352181,53.5005 L713.903181,58.3005 C710.453181,60.1005 709.103181,59.6515 707.303181,56.3515 C704.303181,50.9505 698.603181,48.7005 693.354181,48.7005 C677.421181,48.7005 665.523181,69.9875 659.324181,89.1265 C649.257181,106.0995 637.709181,120.3985 630.203181,120.3985 C626.904181,120.3985 624.054181,117.5485 630.654181,101.1995 L660.652181,26.9985 C662.152181,23.2485 660.802181,21.3445 656.752181,21.3445 L653.603181,21.3445 C648.953181,21.3445 646.703181,22.7985 644.903181,26.9985 L633.053181,56.2985 C632.003181,58.6995 630.654181,58.7995 629.303181,56.4005 C627.503181,52.9505 623.604181,48.7255 616.254181,48.7255 C599.369181,48.7255 587.485181,70.1545 581.381181,89.3005 C571.337181,106.2035 559.838181,120.4045 552.357181,120.4045 C549.056181,120.4045 546.206181,117.5515 552.806181,101.2025 L570.806181,56.3495 C572.305181,52.5995 570.955181,50.3445 566.906181,50.3445 L563.756181,50.3445 C559.106181,50.3445 556.856181,52.1485 555.056181,56.3475 L541.977181,88.8695 C530.374181,108.4895 521.974181,120.3595 516.350181,120.3595 C514.250181,120.3595 509.750181,118.8795 516.951181,101.1795 L523.700181,84.5405 C525.050181,81.2405 525.499181,78.5445 525.499181,76.7445 C525.499181,68.9455 517.400181,63.2485 511.250181,57.9985 C508.701181,55.8985 508.101181,53.6495 509.451181,50.6495 L511.401181,46.0015 C512.750181,42.8505 512.300181,40.9005 509.451181,38.9515 L508.401181,38.2015 C506.151181,36.5515 503.301181,36.5515 500.901181,38.0515 C496.101181,41.0515 491.901181,46.4505 491.901181,51.8515 C491.901181,53.9505 492.501181,55.9015 493.551181,57.7005 C495.801181,61.3005 495.801181,62.9505 494.001181,66.8505 C479.902181,96.9985 467.302181,116.1985 460.853181,122.4975 C457.702181,125.6485 463.252181,131.3475 466.402181,128.4975 C473.752181,121.8985 487.551181,99.2485 500.750181,71.3505 C502.101181,68.4995 504.050181,68.0505 506.451181,70.3005 C509.451181,73.1505 510.350181,74.6505 510.350181,76.9005 C510.350181,77.2005 510.350181,78.7005 509.151181,81.7005 L503.601181,95.1995 C492.952181,120.9975 500.000181,130.4485 511.850181,130.4485 C520.105181,130.4485 527.352181,124.5025 534.235181,115.6265 C533.860181,126.5555 539.895181,130.4485 548.157181,130.4485 C558.438181,130.4485 567.945181,122.5525 576.773181,110.8715 C576.696181,111.8775 576.656181,112.8095 576.656181,113.6485 C576.656181,123.0985 581.455181,130.4485 591.055181,130.4485 C598.704181,130.4485 605.304181,125.4975 608.905181,122.0475 C611.004181,119.9485 612.054181,120.2475 613.254181,122.9485 C614.604181,126.2475 617.904181,130.4485 625.854181,130.4485 C636.338181,130.4485 645.922181,122.3625 654.610181,110.8875 C654.541181,111.8255 654.505181,112.7005 654.505181,113.4985 C654.505181,122.7975 659.305181,130.4485 668.454181,130.4485 C674.605181,130.4485 679.254181,126.8475 681.954181,123.8485 C683.154181,122.6485 683.754181,123.0985 683.154181,124.5985 L681.954181,127.4485 C680.904181,130.1485 678.804181,132.3975 676.254181,133.5975 C665.454181,138.5475 647.606181,143.4965 646.555181,158.0465 C645.955181,166.4465 651.955181,172.4465 661.855181,172.4465 C678.655181,172.4465 687.054181,154.4475 692.904181,139.7475 C694.104181,136.4475 695.753181,134.6475 698.904181,133.1475 C709.067181,128.2375 721.056181,121.4925 732.355181,107.8345 C732.369181,122.6595 740.616181,130.4485 755.753181,130.4485 C779.751181,130.4485 796.701181,110.7985 807.051181,92.7995 C809.601181,88.2995 803.151181,83.7995 800.601181,88.1495 L800.601181,88.1495 Z" sketch:type="MSShapeGroup"></path>
            </g>
        </g>
    </g>
</svg>