<?xml version="1.0" encoding="UTF-8" standalone="no"?>
<svg width="1440px" height="1024px" viewBox="0 0 1440 1024" version="1.1" xmlns="http://www.w3.org/2000/svg" xmlns:xlink="http://www.w3.org/1999/xlink" xmlns:sketch="http://www.bohemiancoding.com/sketch/ns">
    <!-- Generator: Sketch 3.2.2 (9983) - http://www.bohemiancoding.com/sketch -->
    <title>light_white@3x</title>
    <desc>Created with Sketch.</desc>
    <defs></defs>
    <g id="Primary" stroke="none" stroke-width="1" fill="none" fill-rule="evenodd" sketch:type="MSPage">
        <g id="light_white" sketch:type="MSArtboardGroup" fill="#FFFFFF">
            <g id="primary_white" sketch:type="MSLayerGroup" transform="translate(119.000000, 122.000000)">
                <path d="M424.419366,795.268024 C434.927705,795.268024 441.872346,791.611452 448.177349,785.852351 C448.816987,785.303865 449.365248,784.389722 449.365248,783.29275 C449.365248,781.464464 447.720464,779.819006 445.892927,779.819006 C444.979159,779.819006 444.156767,780.276078 443.608506,780.824564 C438.125895,785.852351 432.551906,788.59478 424.60212,788.59478 C410.530084,788.59478 399.838992,776.985163 399.838992,762.176045 L399.838992,761.993216 C399.838992,747.275513 410.438707,735.75731 424.60212,735.75731 C432.46053,735.75731 438.034518,738.682568 442.968868,743.070454 C443.517129,743.436112 444.339521,743.893183 445.344666,743.893183 C447.26358,743.893183 448.99974,742.247726 448.99974,740.328025 C448.99974,739.048225 448.268726,738.042667 447.537711,737.402767 C441.598215,732.466395 435.019081,729.084065 424.693497,729.084065 C405.869864,729.084065 392.34609,744.076012 392.34609,762.176045 L392.34609,762.358873 C392.34609,780.733149 405.961241,795.268024 424.419366,795.268024 L424.419366,795.268024 Z M459.142573,790.971552 C459.142573,792.982667 460.787357,794.628124 462.706271,794.628124 C464.716561,794.628124 466.361345,792.982667 466.361345,790.971552 L466.361345,765.375546 L503.277595,765.375546 L503.277595,790.971552 C503.277595,792.982667 504.922378,794.628124 506.932669,794.628124 C508.851583,794.628124 510.496366,792.982667 510.496366,790.971552 L510.496366,733.380538 C510.496366,731.369423 508.851583,729.723965 506.932669,729.723965 C504.922378,729.723965 503.277595,731.369423 503.277595,733.380538 L503.277595,758.610887 L466.361345,758.610887 L466.361345,733.380538 C466.361345,731.369423 464.716561,729.723965 462.706271,729.723965 C460.787357,729.723965 459.142573,731.369423 459.142573,733.380538 L459.142573,790.971552 Z M525.756303,790.971552 C525.756303,792.982667 527.401086,794.628124 529.32,794.628124 C531.330291,794.628124 532.975074,792.982667 532.975074,790.971552 L532.975074,733.380538 C532.975074,731.369423 531.330291,729.723965 529.32,729.723965 C527.401086,729.723965 525.756303,731.369423 525.756303,733.380538 L525.756303,790.971552 Z M577.475605,795.268024 C587.983943,795.268024 594.928585,791.611452 601.233588,785.852351 C601.873226,785.303865 602.421487,784.389722 602.421487,783.29275 C602.421487,781.464464 600.776703,779.819006 598.949166,779.819006 C598.035398,779.819006 597.213006,780.276078 596.664745,780.824564 C591.182133,785.852351 585.608145,788.59478 577.658359,788.59478 C563.586323,788.59478 552.895231,776.985163 552.895231,762.176045 L552.895231,761.993216 C552.895231,747.275513 563.494946,735.75731 577.658359,735.75731 C585.516768,735.75731 591.090757,738.682568 596.025107,743.070454 C596.573368,743.436112 597.39576,743.893183 598.400905,743.893183 C600.319819,743.893183 602.055979,742.247726 602.055979,740.328025 C602.055979,739.048225 601.324964,738.042667 600.59395,737.402767 C594.654454,732.466395 588.07532,729.084065 577.749736,729.084065 C558.926103,729.084065 545.402329,744.076012 545.402329,762.176045 L545.402329,762.358873 C545.402329,780.733149 559.01748,795.268024 577.475605,795.268024 L577.475605,795.268024 Z M607.812723,791.337209 C607.812723,793.165495 609.274753,794.628124 611.10229,794.628124 C612.747073,794.628124 613.934972,793.713981 614.57461,792.159938 L621.245121,777.259406 L656.333833,777.259406 L663.004344,791.977109 C663.643982,793.439738 664.831881,794.628124 666.568041,794.628124 C668.486955,794.628124 670.040362,793.074081 670.040362,791.154381 C670.040362,790.605895 669.857608,789.965995 669.583477,789.326094 L643.63245,732.649223 C642.810059,730.638108 641.348029,729.449722 639.154985,729.449722 L638.789477,729.449722 C636.505056,729.449722 635.134403,730.638108 634.220634,732.649223 L608.269607,789.417509 C607.9041,790.148823 607.812723,790.788723 607.812723,791.337209 L607.812723,791.337209 Z M624.077803,770.677576 L638.789477,737.951253 L653.501151,770.677576 L624.077803,770.677576 Z M706.77386,795.268024 C716.277053,795.268024 724.135462,791.794281 729.983581,787.497808 C731.628364,786.400837 732.450756,784.846793 732.450756,783.109921 L732.450756,763.638674 C732.450756,761.627559 730.805973,759.982101 728.887059,759.982101 L708.327266,759.982101 C706.591106,759.982101 705.129076,761.44473 705.129076,763.273017 C705.129076,765.009888 706.591106,766.472517 708.327266,766.472517 L725.506115,766.472517 L725.506115,782.378607 C721.120026,785.943765 714.358139,788.777609 707.04799,788.777609 C691.513925,788.777609 681.736601,777.442234 681.736601,762.176045 L681.736601,761.993216 C681.736601,747.732584 691.879432,735.75731 706.042845,735.75731 C714.084008,735.75731 719.201112,738.134082 723.769955,741.607825 C724.50097,742.156311 725.231984,742.521969 726.054376,742.521969 C727.97329,742.521969 729.618074,740.876511 729.618074,738.865396 C729.618074,737.585596 728.978436,736.580039 728.156044,735.940138 C722.307925,731.643666 716.002922,729.084065 706.316975,729.084065 C687.127836,729.084065 674.243699,744.624498 674.243699,762.176045 L674.243699,762.358873 C674.243699,780.641735 686.670951,795.268024 706.77386,795.268024 L706.77386,795.268024 Z M774.940996,795.268024 C794.404266,795.268024 807.65391,779.819006 807.65391,762.176045 L807.65391,761.993216 C807.65391,744.350255 794.58702,729.084065 775.12375,729.084065 C755.660479,729.084065 742.410835,744.533083 742.410835,762.176045 L742.410835,762.358873 C742.410835,780.001835 755.477726,795.268024 774.940996,795.268024 L774.940996,795.268024 Z M775.12375,788.59478 C760.503453,788.59478 749.903737,776.71092 749.903737,762.176045 L749.903737,761.993216 C749.903737,747.458341 760.320699,735.75731 774.940996,735.75731 C789.561293,735.75731 800.161008,747.64117 800.161008,762.176045 L800.161008,762.358873 C800.161008,776.893749 789.744046,788.59478 775.12375,788.59478 L775.12375,788.59478 Z" id="CHICAGO" sketch:type="MSShapeGroup"></path>
                <path d="M677.548267,392.288488 L598.257485,359.198866 L520.588128,391.468084 L486.448886,468.320948 L517.610398,548.385665 L596.393264,582.666826 L676.225452,550.902687 L709.915383,471.87045 L677.548267,392.288488 L677.548267,392.288488 Z M669.566723,512.929709 L613.785216,496.446289 L599.65565,554.97122 L585.500967,496.446289 L529.741787,512.929709 L571.393727,470.95796 L529.741787,428.989002 L585.500967,445.51707 L599.65565,386.969815 L613.785216,445.51707 L669.566723,428.989002 L627.892456,470.95796 L669.566723,512.929709 Z M660.053057,329.226221 L745.076039,320.676162 C726.673835,302.864469 705.06506,288.348344 681.17066,278.188173 C681.137171,278.34444 660.053057,329.226221 660.053057,329.226221 Z M541.245258,327.264507 L594.534624,261.74661 C568.438323,262.380052 543.505765,267.801972 520.585337,277.205921 L541.245258,327.264507 Z M742.293662,414.844012 L808.961883,469.58783 C808.788856,442.676352 803.466897,416.959203 793.978347,393.332131 C793.76625,393.513512 742.293662,414.844012 742.293662,414.844012 Z M407.400899,553.620623 C416.903402,575.590145 430.070159,595.620277 446.122552,612.954796 L455.284583,533.861169 L407.400899,553.620623 Z M659.882821,613.278493 L680.771583,663.870063 C704.205509,653.961035 725.443115,639.866274 743.636012,622.584774 L659.882821,613.278493 Z M676.244987,276.22925 C653.109671,267.082026 627.995714,261.930783 601.734759,261.671267 L654.959938,327.217069 C654.959938,327.217069 676.178009,276.34366 676.244987,276.22925 Z M535.513058,327.719357 L515.550825,279.354598 C493.782976,288.962252 473.949118,302.166847 456.79717,318.220532 L535.513058,327.719357 Z M793.534618,549.672081 C803.067819,526.332429 808.481874,500.922234 808.908859,474.32329 L741.947609,528.160199 C741.947609,528.160199 793.445314,549.621852 793.534618,549.672081 Z M452.485461,619.557093 C470.714639,637.605978 492.236901,652.323018 516.039206,662.756657 L537.19867,611.855343 L452.485461,619.557093 Z M510.541429,545.307756 L483.317665,475.366933 L461.689354,524.049809 L510.541429,545.307756 Z M683.392097,548.053597 L732.891626,528.358324 L712.820553,479.011312 L683.392097,548.053597 Z M654.393416,614.051458 L599.248201,680.261396 C599.382157,680.261396 599.513322,680.272558 599.647278,680.272558 C626.471965,680.272558 652.116164,675.126896 675.720326,665.865262 L654.393416,614.051458 Z M452.440809,414.322191 L404.844572,394.537622 C396.402554,415.940674 391.390367,439.031973 390.500118,463.158543 L452.440809,414.322191 Z M605.376687,356.240948 L674.643097,385.144835 L654.574815,335.800614 L605.376687,356.240948 Z M513.33776,552.493266 L461.106087,529.862565 C460.997248,530.281138 451.491954,614.151916 451.491954,614.151916 L534.402339,606.612014 L513.33776,552.493266 Z M545.367755,331.27444 L598.260275,353.271867 L651.20638,331.27444 L598.16539,265.957459 L545.367755,331.27444 Z M749.147743,324.71121 L740.111295,409.823922 C740.111295,409.823922 791.75412,388.599461 792.038776,388.579927 C781.7437,364.673806 767.109009,343.064257 749.147743,324.71121 Z M738.48987,418.800926 L715.845726,471.920679 L737.362407,524.825565 L803.171077,471.915098 L738.48987,418.800926 Z M739.564308,533.093784 L747.752368,618.641813 C766.03457,600.31388 780.914848,578.617826 791.449928,554.605666 C791.360624,554.577761 739.564308,533.093784 739.564308,533.093784 Z M543.430415,609.628533 L596.217447,675.916605 L649.453789,611.72419 L596.298378,588.593825 L543.430415,609.628533 Z M390.349418,472.768988 C390.58105,499.513037 395.886265,525.068337 405.32179,548.558676 L455.923665,527.674654 L390.349418,472.768988 Z M465.451285,414.37521 L483.652555,461.135438 L513.242874,394.518089 L465.451285,414.37521 Z M521.082091,664.88022 C543.419252,673.977215 567.654123,679.304259 593.005294,680.102339 L541.44061,615.912715 L521.082091,664.88022 Z M734.127928,533.757921 L680.366924,555.147021 L658.015809,607.583104 L742.089937,616.917291 L734.127928,533.757921 Z M733.829318,415.773245 L684.664679,395.257568 L712.940556,464.777027 L733.829318,415.773245 Z M589.226618,585.518706 L520.40952,555.571175 L539.729881,605.211188 L589.226618,585.518706 Z M455.647381,323.595014 C455.647381,323.595014 463.333106,409.003518 463.46148,409.276986 L516.471772,387.251655 L538.893825,334.027985 L455.647381,323.595014 Z M450.241698,324.613543 C432.018102,343.212153 417.19364,365.156561 406.865075,389.45056 L457.360901,410.443411 L450.241698,324.613543 Z M673.20307,557.998901 L603.465024,585.744735 L652.314308,607.002682 L673.20307,557.998901 Z M743.471358,326.338065 L660.047475,334.726276 L681.762299,388.116706 L734.571657,410.1532 L743.471358,326.338065 Z M393.18761,468.666969 L456.897637,521.680683 L480.521333,468.3349 L460.394446,416.537839 L393.18761,468.666969 Z M523.817025,384.20165 L591.141073,356.229786 L544.82858,336.902857 L523.817025,384.20165 Z" id="gem" sketch:type="MSShapeGroup"></path>
                <path d="M1102.12988,300.829921 C1106.13908,297.703563 1109.66802,297.81421 1113.38059,301.086528 C1132.79095,319.034837 1151.3585,324.844966 1175.03938,313.340062 C1203.35096,299.815267 1206.81163,276.652438 1188.79731,262.237761 C1167.20932,244.960395 1118.74816,264.770864 1105.7624,269.636966 C1102.32528,270.924705 1051.41575,291.10949 1028.96848,291.665078 C1024.96634,291.662724 1024.28598,289.43331 1027.19812,286.982603 L1109.50558,218.311017 C1113.70311,214.94924 1112.62254,211.971196 1107.3609,211.829945 L1090.7285,211.488588 C1084.62171,211.429733 1083.08677,209.810054 1083.03498,203.910465 C1082.87254,194.21593 1076.77517,186.633099 1069.37592,183.005299 C1045.71624,171.403874 998.062569,208.279833 992.158241,213.484937 C985.512341,219.346858 941.639514,247.82073 930.289927,243.903366 C925.393195,242.215415 922.624659,236.527703 940.787294,215.650787 L1023.38903,120.633513 C1027.53242,115.838037 1026.60722,112.028966 1020.59695,109.954928 L1015.92622,108.342311 C1009.02607,105.96223 1004.84266,107.257032 1000.02126,112.568074 L967.389728,150.11733 C964.602358,153.140104 962.521247,152.671621 961.74907,148.419963 C960.842704,142.379123 957.207823,134.153599 946.303179,130.389257 C922.010213,122.006003 873.784474,171.203768 872.976984,172.051275 C851.155926,194.988103 827.726951,213.433145 816.03836,210.695227 C810.995668,209.513426 807.662124,204.136467 823.604751,181.5151 L867.126803,119.656526 C870.761684,114.465547 869.450396,110.771831 863.261211,109.319298 L858.446876,108.191643 C851.341908,106.52488 847.313876,108.241081 843.057486,114.013544 C843.057486,114.013544 790.285791,189.64881 766.430706,194.955144 C763.212518,195.670816 756.211134,192.054788 768.966177,164.915739 L780.927856,139.382245 C783.317366,134.323101 784.249629,130.130297 784.397943,127.309983 C785.045347,115.084698 772.824707,105.479622 763.624503,96.740886 C759.801286,93.2378582 759.047942,89.6618507 761.411557,85.0711893 L764.855748,77.9474245 C767.233488,73.1213445 766.692022,70.0302992 762.383841,66.7367939 L760.804174,65.4725964 C757.414129,62.7017202 752.948216,62.4639475 749.061436,64.6156729 C741.287875,68.9167695 734.258241,77.0316464 733.810943,85.4949426 C733.634379,88.7860938 734.413618,91.8912642 735.908534,94.7986831 C739.136139,100.627646 738.999595,103.214896 735.854387,109.175693 C711.253021,155.254163 689.909865,184.297747 679.278309,193.632092 C674.08024,198.307504 682.303453,207.703058 687.477979,203.498483 C699.545596,193.766281 723.05226,159.416362 746.059834,116.789128 C748.411677,112.43624 751.505093,111.892423 755.078765,115.616744 C759.542324,120.332177 760.827716,122.756988 760.641734,126.285912 C760.615838,126.754395 760.49342,129.106226 758.362871,133.706304 L748.543512,154.401947 C729.709931,193.949907 739.971879,209.346279 758.544144,210.330329 C770.169172,210.947125 780.918439,203.96932 791.340472,192.87169 C784.376755,212.17601 792.409278,221.357333 806.021249,224.547254 C820.949216,228.047927 837.365036,220.399179 854.126924,207.027407 C849.566843,220.84412 853.00868,233.919266 867.060886,238.768887 C878.410473,242.686252 890.737052,238.721804 897.84202,235.447132 C902.034846,233.406053 903.437948,234.387749 903.835807,239.009014 C904.148916,244.595496 906.89391,252.51733 918.690795,256.587716 C933.086713,261.555047 949.886268,255.855565 967.184912,245.009833 C960.892142,257.607079 962.13045,271.188374 974.466446,277.775384 C982.983933,282.321316 992.080553,280.776971 998.036673,278.618183 C1000.58627,277.843656 1001.083,278.910102 999.1455,280.543906 L995.374075,283.601993 C991.925176,286.563558 987.355678,288.126737 982.936849,287.90309 C964.326917,286.770726 935.954126,280.428551 923.742903,299.796434 C916.703852,310.981168 920.576507,323.724374 934.280292,331.041182 C957.539765,343.461864 982.475426,324.753153 1001.44084,308.725859 C1005.54421,305.043913 1009.1579,303.772653 1014.62906,304.024551 C1031.60518,304.709619 1052.16909,304.27174 1076.53269,294.92327 C1063.98952,312.29245 1066.96287,329.070729 1084.73,343.292362 C1114.14099,366.827153 1154.18354,359.371448 1184.51738,347.463979 C1192.05552,344.448267 1188.5666,332.611423 1181.17442,335.4388 C1148.70768,347.751189 1116.64586,348.6293 1098.81517,334.360583 C1082.27222,321.120645 1094.00319,307.593496 1102.12988,300.829921 L1102.12988,300.829921 Z M1126.18036,285.094547 C1138.05729,278.919518 1162.91291,267.454636 1174.86046,277.014982 C1181.29448,282.163586 1177.76319,288.084362 1162.83522,295.434129 C1151.39853,301.058277 1138.60346,304.989767 1125.47881,293.88272 C1121.80155,290.939989 1122.06051,287.227438 1126.18036,285.094547 L1126.18036,285.094547 Z M917.951577,206.773155 C915.839861,209.280362 911.256238,213.178893 908.410014,214.935115 C901.662883,219.330379 890.43336,225.168759 881.977082,222.249569 C877.080351,220.559264 875.630165,216.823172 877.781902,210.591643 C883.848669,193.010587 922.554033,144.358993 943.473434,151.576925 C949.4837,153.650962 950.540735,159.244507 950.194668,163.85871 C950.008686,167.281695 948.019389,172.322006 945.907674,174.831568 L917.951577,206.773155 L917.951577,206.773155 Z M969.621507,305.342895 C954.893646,316.428753 944.867119,317.212697 939.565465,314.648989 C935.827,312.65264 934.442731,309.246134 936.217796,305.922024 C940.43181,298.033149 955.804721,298.233255 967.879401,299.610453 C972.185228,300.041269 972.959759,302.590852 969.621507,305.342895 L969.621507,305.342895 Z M1019.67646,261.08421 C1012.32194,264.361236 1000.31318,268.358643 992.421911,264.144651 C987.854768,261.703361 988.655195,258.398085 990.117152,251.971159 C993.4813,237.17275 1044.76279,193.615613 1064.2838,204.037591 C1069.88914,207.032115 1070.05393,212.724535 1068.98513,217.223383 C1068.26239,220.575743 1065.50562,225.241738 1063.0243,227.386401 L1030.38335,254.52545 C1027.90673,256.670113 1022.76517,259.796471 1019.67646,261.08421 Z M875.251139,97.3812244 C883.043534,99.2057181 890.967763,94.2948874 892.79462,86.5001798 C894.619124,78.7078263 889.654121,71.0119945 881.859372,69.1875008 C874.066978,67.3582988 866.427606,72.0972739 864.598395,79.8896274 C862.771538,87.684335 867.456391,95.5520224 875.251139,97.3812244 Z M197.331671,334.351166 C190.327932,335.191611 185.339388,329.998278 180.791078,318.935961 L165.156851,280.880555 C159.866969,267.779513 151.737924,252.858687 137.269025,248.129128 C132.918468,246.999119 132.499421,245.03102 135.762339,241.829328 C158.480346,219.229149 158.539201,183.445532 141.440664,156.654903 C120.415324,123.717496 79.9631458,118.535934 43.2541415,141.969495 C-3.38016007,171.73346 -9.76709835,226.920273 12.4000269,261.644506 C17.9724128,270.37618 24.5170823,276.254581 29.6680668,279.945943 C34.8190513,283.642014 39.2214009,282.227149 41.4884933,276.591229 C44.5301167,268.226809 43.6755429,265.140472 37.5122534,259.860034 C34.6919246,257.190388 31.49257,253.927487 28.9570991,249.95833 C15.0249573,228.130324 15.7382792,182.433232 53.2430022,158.493522 C80.6270295,141.013695 108.314748,147.638373 121.994991,169.068522 C138.460249,194.865685 134.564052,236.452369 92.7228971,245.285272 C87.7414149,246.231655 84.9046067,244.41187 83.9582192,239.430414 L77.5924687,204.951015 C75.5890465,193.94049 77.06042,185.740863 79.0567797,180.556947 C81.1425988,174.200646 80.525799,172.357319 75.3912939,167.816096 C71.9212065,165.002844 67.8037148,165.118199 64.6679235,168.515289 C55.2558412,178.711265 52.5179094,194.983394 55.0298383,209.857137 L81.1308278,348.756426 C82.312635,354.985601 85.8721819,356.624114 91.2279816,353.203483 L95.3949115,350.543253 C101.548784,346.616472 103.130805,342.534315 101.965477,335.457633 L89.6883363,269.844134 C88.9397015,264.735552 90.4911177,262.350762 95.4726,261.404379 L100.976714,260.403851 C109.244656,258.478127 123.358071,254.774994 135.154956,272.381946 C139.27951,278.406306 143.425252,286.650663 148.100689,297.910731 L160.926358,329.383835 C170.329023,352.426601 189.336815,362.076407 208.787196,352.732645 C214.524376,349.909977 215.727371,345.229857 212.433849,340.071837 C208.507047,333.92035 206.828504,333.037531 197.331671,334.351166 Z M322.214794,96.385404 C329.941271,94.2948874 334.581395,86.2082608 332.490867,78.4841787 C330.400339,70.7577424 322.377234,66.3436449 314.650757,68.4341615 C306.92428,70.5246781 302.448951,78.3217399 304.539478,86.0481762 C306.63236,93.7746125 314.488317,98.4759206 322.214794,96.385404 Z M663.321557,152.240805 C662.398711,169.638235 651.020874,193.078858 625.866272,191.744035 C612.701599,191.047196 601.297865,183.841035 591.796323,176.265267 C587.742395,172.750468 587.433995,169.668839 590.021258,165.327722 C595.666624,156.669028 599.887701,148.170419 603.07293,141.503366 L616.357668,113.213121 C618.735407,108.387041 621.878261,106.903904 626.975099,108.589501 C660.99561,120.529929 663.895981,141.428032 663.321557,152.240805 L663.321557,152.240805 Z M551.031037,175.989827 C544.632327,181.072513 537.861655,184.250663 530.810833,183.873994 C521.643587,183.389032 514.889394,177.374088 515.25194,170.556367 C515.600362,163.974065 522.333367,157.02451 531.736032,157.521243 C537.84753,157.846121 544.255656,161.485691 550.835638,166.314125 C554.929588,169.125023 554.964901,172.898782 551.031037,175.989827 L551.031037,175.989827 Z M234.40793,221.865837 C234.419701,225.145217 233.445063,231.082472 232.406862,234.262977 C230.104456,241.977642 225.313664,253.692068 216.975096,256.933782 C212.148991,258.810067 208.624757,256.896115 206.2376,250.754045 C199.497532,233.420178 197.560028,171.279102 218.187508,163.258393 C224.110669,160.955999 228.534206,164.53907 231.253305,168.282224 C233.324999,171.010725 235.069459,176.145203 235.08123,179.422229 L234.40793,221.865837 L234.40793,221.865837 Z M667.582655,111.920673 C664.204381,108.912024 664.774097,107.056926 669.327115,105.649123 C681.552464,101.81651 703.827882,90.7400676 705.424028,60.6512248 C707.081383,29.3852893 683.770118,2.22034469 644.749291,0.15101578 C590.915853,-2.70461103 558.013587,35.3908161 555.857142,76.0593678 C555.33451,85.9304669 556.989511,94.7398285 558.792826,100.728876 C560.598496,106.717923 564.989075,108.365853 570.12358,104.867534 L571.100572,104.21307 C577.946578,99.624763 579.036572,96.8515327 577.343904,88.7484268 C576.602332,84.9370007 575.900781,80.4216732 576.173868,75.2495281 C577.520469,49.8619934 599.767637,17.0964418 641.140306,19.2881884 C669.819142,20.8089921 684.189165,38.780843 683.129776,58.760814 C681.710195,85.5608598 656.562655,97.4283081 634.181298,92.7058123 C629.531758,91.5145946 627.810839,88.3599862 629.929617,83.9929724 L635.786861,71.3392262 C640.565882,61.2185834 646.531419,55.408454 651.173897,52.3527215 C656.569718,48.3953359 657.139434,46.5402379 655.806958,40.5747322 L655.609205,39.8590599 C654.42269,35.5509007 651.009103,33.2485074 646.479627,34.1878274 C632.658132,36.9916621 620.960124,48.6284003 614.582603,62.1979245 L584.258182,127.305274 C581.063536,134.207746 577.099067,142.247289 572.458944,149.780682 C569.869326,154.121799 566.766494,154.901035 562.681961,151.854719 C551.092246,143.697467 542.322859,140.166189 532.684774,139.657685 C526.38965,139.32339 520.932619,140.328628 516.259537,142.226101 C515.598007,136.604306 507.457192,133.485011 504.832261,139.615309 C497.875607,155.920397 488.995574,173.889894 479.343363,183.890473 C476.398262,186.873226 474.150003,185.971573 474.347756,181.912957 C474.576113,178.085052 474.307735,174.087645 473.775686,169.880716 C471.977079,157.533014 463.930431,125.803304 465.260553,95.0223307 C465.747872,87.6042927 463.43605,84.3390376 456.307539,82.3921264 L455.081002,82.0719572 C448.449227,80.2992556 444.656615,82.2037915 442.417773,88.8943863 C436.249775,107.647827 394.01076,207.286367 382.242126,209.659386 C377.164122,210.683456 371.895428,207.182783 376.97814,179.982525 L400.058694,56.220648 C401.202834,49.984411 398.474319,47.1735137 392.245112,48.4306487 L387.397819,49.4076356 C380.245767,50.848397 377.295957,54.0830477 375.829292,61.1032284 C375.829292,61.1032284 356.242367,160.762956 355.98576,161.982424 C352.6993,177.583611 335.47599,221.081893 323.886275,224.217668 C318.885959,225.571324 313.400678,222.421424 316.694201,194.945727 L325.637798,119.849569 C326.372307,113.552124 323.467227,110.924853 317.332188,112.584553 L312.56023,113.877001 C305.514116,115.781537 302.783247,119.204523 301.778004,126.304745 C301.778004,126.304745 294.359927,176.91973 294.039757,179.153852 C290.706213,202.497954 279.019975,237.860172 268.049414,242.125956 C262.345193,244.343598 257.274252,239.748229 257.568526,213.871023 L258.474892,138.249882 C258.656166,132.872923 255.694585,131.75233 252.15858,135.653215 L240.931411,148.354045 C237.044631,152.643371 234.812852,152.754018 230.083268,149.034405 C225.487875,145.013456 217.394143,141.086675 206.642522,145.267708 C169.344969,159.771844 176.532334,239.319767 185.659558,262.795703 C191.036546,276.617125 202.237818,284.640189 216.280608,279.178479 C227.470109,274.827944 234.309053,263.833899 237.611993,256.740738 C239.490642,252.474954 241.195081,252.31487 244.48625,255.582479 C248.337717,259.641095 255.553333,263.906878 267.18307,259.386843 C279.895737,254.443053 288.547413,241.728098 294.656556,225.147571 C298.710485,241.224303 309.311437,244.501329 321.642724,241.165448 C334.941587,237.565899 345.019907,225.474803 353.028887,208.755379 C356.039906,224.996903 366.393668,228.942518 378.896811,226.42354 C401.337024,221.898795 433.919119,136.385367 441.944579,126.445997 C444.129275,123.743392 445.122746,123.434994 445.565335,126.938021 C447.48636,142.120163 450.221938,156.247629 451.577956,166.992131 C454.355909,188.949617 450.21723,195.640212 441.108839,196.793763 C432.233514,197.914355 428.280816,191.058967 420.318919,197.52356 C416.877082,200.332103 416.912395,204.360115 420.56611,206.982677 C426.060808,211.03423 435.849561,215.255284 449.395615,213.541437 C472.174831,210.662269 486.775565,198.23217 497.687272,181.804665 C501.524614,193.363715 512.46457,202.940541 530.690769,203.905757 C545.971866,204.715597 557.81348,199.21622 567.912988,191.028363 C572.357713,187.256958 575.178042,187.405272 579.469744,190.934196 C595.956191,204.539033 609.441035,212.559742 627.307041,213.508479 C664.917703,215.502474 684.502273,184.008182 685.950105,156.739654 C687.169579,133.70395 675.22438,118.926729 667.582655,111.920673 L667.582655,111.920673 Z" id="RailsBridge" sketch:type="MSShapeGroup"></path>
            </g>
        </g>
    </g>
</svg>