<?xml version="1.0" encoding="UTF-8" standalone="no"?>
<svg viewBox="0 0 300 300" version="1.1" xmlns="http://www.w3.org/2000/svg" xmlns:xlink="http://www.w3.org/1999/xlink" xmlns:sketch="http://www.bohemiancoding.com/sketch/ns">
    <!-- Generator: Sketch 3.2.2 (9983) - http://www.bohemiancoding.com/sketch -->
    <title>gem_pink</title>
    <desc>Created with Sketch.</desc>
    <defs></defs>
    <g id="Symbols" stroke="none" stroke-width="1" fill="none" fill-rule="evenodd" sketch:type="MSPage">
        <g id="Gem" sketch:type="MSArtboardGroup" transform="translate(-80.000000, -41.000000)" fill="#EA615B">
            <g id="gem_pink" sketch:type="MSLayerGroup" transform="translate(80.000000, 41.000000)">
                <path d="M205.822,93.6097593 L148.998,69.8953403 L93.336,93.0217985 L68.87,148.100127 L91.202,205.480301 L147.662,230.048663 L204.874,207.284181 L229.018,150.643957 L205.822,93.6097593 L205.822,93.6097593 Z M200.102,180.069995 L160.126,168.256783 L150,210.199987 L139.856,168.256783 L99.896,180.069995 L129.746,149.990001 L99.896,119.912006 L139.856,131.757216 L150,89.7980135 L160.126,131.757216 L200.102,119.912006 L170.236,149.990001 L200.102,180.069995 Z M193.284,48.4147723 L254.216,42.2871809 C241.028,29.5220319 225.542,19.1187254 208.418,11.8372109 C208.394,11.9492034 193.284,48.4147723 193.284,48.4147723 Z M108.14,47.0088661 L146.33,0.0539964002 C127.628,0.507966136 109.76,4.39370709 93.334,11.1332578 L108.14,47.0088661 Z M252.222,109.774682 L300,149.008066 C299.876,129.721352 296.062,111.290581 289.262,94.3577095 C289.11,94.4877008 252.222,109.774682 252.222,109.774682 Z M12.22,209.232051 C19.03,224.977002 28.466,239.332045 39.97,251.755216 L46.536,195.070995 L12.22,209.232051 Z M193.162,251.987201 L208.132,288.244784 C224.926,281.143257 240.146,271.041931 253.184,258.656756 L193.162,251.987201 Z M204.888,10.4333044 C188.308,3.87774148 170.31,0.185987601 151.49,0 L189.634,46.9748683 C189.634,46.9748683 204.84,10.515299 204.888,10.4333044 Z M104.032,47.3348443 L89.726,12.6731551 C74.126,19.5586961 59.912,29.0220652 47.62,40.5272982 L104.032,47.3348443 Z M288.944,206.40224 C295.776,189.675355 299.656,171.464569 299.962,152.40184 L251.974,190.985268 C251.974,190.985268 288.88,206.366242 288.944,206.40224 Z M44.53,256.486901 C57.594,269.422039 73.018,279.969335 90.076,287.446837 L105.24,250.967269 L44.53,256.486901 Z M86.136,203.274448 L66.626,153.14979 L51.126,188.039464 L86.136,203.274448 Z M210.01,205.242317 L245.484,191.127258 L231.1,155.761616 L210.01,205.242317 Z M189.228,252.541164 L149.708,299.992001 C149.804,299.992001 149.898,300 149.994,300 C169.218,300 187.596,296.312246 204.512,289.674688 L189.228,252.541164 Z M44.498,109.400707 L10.388,95.2216519 C4.338,110.560629 0.746,127.109526 0.108,144.400373 L44.498,109.400707 Z M154.1,67.7754816 L203.74,88.4901007 L189.358,53.1264582 L154.1,67.7754816 Z M88.14,208.424105 L50.7080001,192.205306 C50.6300001,192.505286 43.818,252.613159 43.818,252.613159 L103.236,247.209519 L88.14,208.424105 Z M111.094401,49.8826744 L149,65.6476235 L186.944,49.8826745 L148.932,3.07179521 L111.094401,49.8826744 Z M257.134,45.1789881 L250.658,106.176922 C250.658,106.176922 287.668,90.9659356 287.872,90.9519365 C280.494,73.8190787 270.006,58.3321112 257.134,45.1789881 Z M249.496,112.610493 L233.268,150.679955 L248.688,188.595427 L295.85,150.675955 L249.496,112.610493 Z M250.266,194.521032 L256.134,255.830945 C269.236,242.69582 279.9,227.146857 287.45,209.938004 C287.386,209.918005 250.266,194.521032 250.266,194.521032 Z M109.706,249.371375 L147.536,296.878208 L185.688,250.873275 L147.594,234.29638 L109.706,249.371375 Z M0,151.287914 C0.166,170.454636 3.968,188.769415 10.73,205.604293 L46.994,190.637291 L0,151.287914 Z M53.822,109.438704 L66.866,142.95047 L88.072,95.2076528 L53.822,109.438704 Z M93.69,288.968735 C109.698,295.488301 127.066,299.306046 145.234,299.878008 L108.28,253.875075 L93.69,288.968735 Z M246.37,194.997 L207.842,210.325978 L191.824,247.905473 L252.076,254.595027 L246.37,194.997 Z M246.156,110.440637 L210.922,95.7376175 L231.186,145.560296 L246.156,110.440637 Z M142.526,232.092527 L93.208,210.629958 L107.054,246.205586 L142.526,232.092527 Z M46.796,44.3790414 C46.796,44.3790414 52.304,105.588961 52.396,105.784948 L90.386,90 L106.454838,51.8560642 L46.796,44.3790414 Z M42.922,45.1089927 C29.862,58.4381041 19.238,74.1650557 11.836,91.5758949 L48.024,106.620892 L42.922,45.1089927 Z M202.708,212.369842 L152.73,232.254516 L187.738,247.489501 L202.708,212.369842 Z M253.066,46.3449103 L193.28,52.3565096 L208.842,90.6199587 L246.688,106.412906 L253.066,46.3449103 Z M2.034,148.34811 L47.692,186.341577 L64.622,148.110126 L50.198,110.988601 L2.034,148.34811 Z M95.65,87.8141457 L143.898,67.7674822 L110.708,53.9164056 L95.65,87.8141457 Z" id="star-2" sketch:type="MSShapeGroup"></path>
            </g>
        </g>
    </g>
</svg>