<?xml version="1.0" encoding="UTF-8" standalone="no"?>
<svg viewBox="0 0 301 301" version="1.1" xmlns="http://www.w3.org/2000/svg" xmlns:xlink="http://www.w3.org/1999/xlink" xmlns:sketch="http://www.bohemiancoding.com/sketch/ns">
    <!-- Generator: Sketch 3.2.2 (9983) - http://www.bohemiancoding.com/sketch -->
    <title>gem_light_pink</title>
    <desc>Created with Sketch.</desc>
    <defs></defs>
    <g id="Symbols" stroke="none" stroke-width="1" fill="none" fill-rule="evenodd" sketch:type="MSPage">
        <g id="Gem" sketch:type="MSArtboardGroup" transform="translate(-460.000000, -41.000000)" fill="#F6C4C3">
            <g id="gem_light_pink" sketch:type="MSLayerGroup" transform="translate(460.000000, 41.000000)">
                <path d="M205.859738,93.6935792 L149.035738,69.9791602 L93.3737379,93.1056184 L68.9077379,148.183947 L91.2397379,205.564121 L147.699738,230.132483 L204.911738,207.368001 L229.055738,150.727777 L205.859738,93.6935792 L205.859738,93.6935792 Z M200.139738,180.153815 L160.163738,168.340603 L150.037738,210.283807 L139.893738,168.340603 L99.9337379,180.153815 L129.783738,150.073821 L99.9337379,119.995826 L139.893738,131.841036 L150.037738,89.8818333 L160.163738,131.841036 L200.139738,119.995826 L170.273738,150.073821 L200.139738,180.153815 Z M193.321738,48.4985922 L254.253738,42.3710007 C241.065738,29.6058517 225.579738,19.2025453 208.455738,11.9210307 C208.431738,12.0330232 193.321738,48.4985922 193.321738,48.4985922 Z M108.177738,47.0926859 L146.367738,0.137816247 C127.665738,0.591785982 109.797738,4.47752693 93.3717379,11.2170776 L108.177738,47.0926859 Z M252.259738,109.858502 L300.037738,149.091886 C299.913738,129.805172 296.099738,111.3744 289.299738,94.4415293 C289.147738,94.5715207 252.259738,109.858502 252.259738,109.858502 Z M12.2577379,209.315871 C19.0677379,225.060821 28.5037379,239.415864 40.0077379,251.839036 L46.5737379,195.154815 L12.2577379,209.315871 Z M193.199738,252.071021 L208.169738,288.328604 C224.963738,281.227077 240.183738,271.12575 253.221738,258.740576 L193.199738,252.071021 Z M204.925738,10.5171243 C188.345738,3.96156133 170.347738,0.269807447 151.527738,0.0838198464 L189.671738,47.0586882 C189.671738,47.0586882 204.877738,10.5991188 204.925738,10.5171243 Z M104.069738,47.4186642 L89.7637379,12.756975 C74.1637379,19.6425159 59.9497379,29.105885 47.6577379,40.611118 L104.069738,47.4186642 Z M288.981738,206.48606 C295.813738,189.759175 299.693738,171.548389 299.999738,152.48566 L252.011738,191.069087 C252.011738,191.069087 288.917738,206.450062 288.981738,206.48606 Z M44.5677379,256.570721 C57.6317379,269.505858 73.0557379,280.053155 90.1137379,287.530657 L105.277738,251.051089 L44.5677379,256.570721 Z M86.1737379,203.358268 L66.6637379,153.23361 L51.1637379,188.123284 L86.1737379,203.358268 Z M210.047738,205.326137 L245.521738,191.211078 L231.137738,155.845436 L210.047738,205.326137 Z M189.265738,252.624984 L149.745738,300.07582 C149.841738,300.07582 149.935738,300.08382 150.031738,300.08382 C169.255738,300.08382 187.633738,296.396066 204.549738,289.758508 L189.265738,252.624984 Z M44.5357379,109.484526 L10.4257379,95.3054717 C4.37573791,110.644449 0.783737914,127.193346 0.145737914,144.484193 L44.5357379,109.484526 Z M154.137738,67.8593015 L203.777738,88.5739205 L189.395738,53.2102781 L154.137738,67.8593015 Z M88.1777379,208.507925 L50.745738,192.289126 C50.667738,192.589106 43.8557379,252.696979 43.8557379,252.696979 L103.273738,247.293339 L88.1777379,208.507925 Z M111.132139,49.9664942 L149.037738,65.7314433 L186.981738,49.9664943 L148.969738,3.15561506 L111.132139,49.9664942 Z M257.171738,45.2628079 L250.695738,106.260741 C250.695738,106.260741 287.705738,91.0497555 287.909738,91.0357564 C280.531738,73.9028986 270.043738,58.415931 257.171738,45.2628079 Z M249.533738,112.694312 L233.305738,150.763775 L248.725738,188.679247 L295.887738,150.759775 L249.533738,112.694312 Z M250.303738,194.604852 L256.171738,255.914764 C269.273738,242.77964 279.937738,227.230677 287.487738,210.021824 C287.423738,210.001825 250.303738,194.604852 250.303738,194.604852 Z M109.743738,249.455195 L147.573738,296.962028 L185.725738,250.957095 L147.631738,234.3802 L109.743738,249.455195 Z M0.0377379138,151.371734 C0.203737914,170.538456 4.00573791,188.853235 10.7677379,205.688113 L47.0317379,190.721111 L0.0377379138,151.371734 Z M53.8597379,109.522524 L66.9037379,143.03429 L88.1097379,95.2914727 L53.8597379,109.522524 Z M93.7277379,289.052555 C109.735738,295.572121 127.103738,299.389866 145.271738,299.961828 L108.317738,253.958895 L93.7277379,289.052555 Z M246.407738,195.08082 L207.879738,210.409798 L191.861738,247.989293 L252.113738,254.678847 L246.407738,195.08082 Z M246.193738,110.524457 L210.959738,95.8214373 L231.223738,145.644116 L246.193738,110.524457 Z M142.563738,232.176347 L93.2457379,210.713778 L107.091738,246.289406 L142.563738,232.176347 Z M46.8337379,44.4628612 C46.8337379,44.4628612 52.3417379,105.672781 52.4337379,105.868768 L90.4237379,90.0838198 L106.492576,51.939884 L46.8337379,44.4628612 Z M42.9597379,45.1928126 C29.8997379,58.521924 19.2757379,74.2488755 11.8737379,91.6597148 L48.0617379,106.704712 L42.9597379,45.1928126 Z M202.745738,212.453662 L152.767738,232.338336 L187.775738,247.573321 L202.745738,212.453662 Z M253.103738,46.4287302 L193.317738,52.4403294 L208.879738,90.7037785 L246.725738,106.496726 L253.103738,46.4287302 Z M2.07173791,148.43193 L47.7297379,186.425397 L64.6597379,148.193946 L50.2357379,111.072421 L2.07173791,148.43193 Z M95.6877379,87.8979656 L143.935738,67.851302 L110.745738,54.0002254 L95.6877379,87.8979656 Z" id="star" sketch:type="MSShapeGroup"></path>
            </g>
        </g>
    </g>
</svg>